<svg xmlns="http://www.w3.org/2000/svg" version="1.1" xmlns:xlink="http://www.w3.org/1999/xlink" xmlns:svgjs="http://svgjs.com/svgjs" height="272.47998809814453" width="277.16001586914064"><defs id="SvgjsDefs1574"></defs><g id="SvgjsG1575" rel="mainfill" name="main_text" xmlns:name="main_text" transform="translate(46.70911350250245,-98.86625289916992)" fill="#000000"><path d="M15.92 208.79Q16.55 209.07 18.47 209.80Q20.39 210.54 21.30 210.95Q22.20 211.37 23.39 212.32Q24.58 213.26 25.14 214.45Q25.55 215.21 25.10 216.40Q24.65 217.59 24.02 218.01Q22.55 218.91 20.04 217.52Q17.53 216.12 15.40 214.93Q13.27 213.75 10.26 215.21Q8.94 216.12 10.19 217.94Q11.45 219.75 12.85 220.24Q20.11 222.82 23.88 226.31Q25.28 227.99 25.10 230.22Q24.93 232.46 23.67 234.48Q21.85 237.56 17.73 239.34Q13.62 241.12 9.29 240.21Q4.96 239.30 3.00 235.25Q2.30 233.86 3.49 232.49Q4.68 231.13 6.28 230.99Q7.19 230.92 8.06 232.39Q8.94 233.86 9.50 234.13Q11.94 235.53 15.22 234.24Q18.50 232.95 18.50 230.09Q18.50 229.39 17.42 228.44Q16.34 227.50 15.29 227.01Q14.52 226.66 11.87 225.58Q9.22 224.50 8.06 223.94Q6.91 223.38 5.34 222.06Q3.77 220.73 3.00 219.05Q1.75 216.47 4.05 213.57Q6.35 210.67 10.02 209.24Q13.69 207.81 15.92 208.79ZM26.60 219.33Q26.81 217.73 26.50 215.07Q26.18 212.42 26.25 210.15Q26.32 207.88 27.23 206.21Q27.65 205.09 29.12 204.64Q30.58 204.18 32.12 204.81Q33.03 205.37 33.03 207.67Q32.96 208.16 32.75 210.22Q32.54 212.28 32.47 213.01Q32.40 213.75 32.29 215.46Q32.19 217.17 32.26 218.22Q32.33 219.26 32.50 220.69Q32.68 222.13 33.03 223.38Q35.19 219.54 38.16 217.34Q41.12 215.14 44.62 216.68Q45.87 221.99 46.40 224.33Q46.92 226.66 47.41 230.92Q47.90 235.18 47.55 238.53Q47.48 239.79 45.49 240.31Q43.50 240.84 42.59 239.93Q40.99 237.98 40.81 234.97Q40.64 231.97 40.64 228.65Q40.64 225.34 39.45 223.10Q35.12 227.43 31.84 234.41Q31.42 235.11 30.20 235.60Q28.98 236.09 28.07 235.88Q27.93 235.81 27.47 235.71Q27.02 235.60 26.67 235.53Q26.32 235.46 26.04 235.25Q25.76 235.04 25.76 234.76Q25.76 227.15 26.60 219.33ZM56.28 230.85Q52.79 228.76 51.32 224.85Q49.85 220.94 51.04 216.89Q51.67 214.58 53.48 212.04Q55.30 209.49 55.51 209.00Q56.90 206.35 59.73 206.63Q62.56 206.90 64.72 209.28Q67.03 211.93 68.15 216.12Q70.03 223.17 63.33 230.22Q62.21 231.41 59.94 231.55Q57.67 231.69 56.28 230.85M58.51 223.94Q60.88 224.50 62.00 222.89Q63.12 221.29 62.60 218.77Q62.07 216.26 60.26 214.24Q59.49 213.40 57.60 215.56Q55.02 218.43 55.37 221.08Q55.65 223.31 58.51 223.94ZM70.31 215.98Q70.38 215.56 69.86 214.62Q69.33 213.68 69.68 213.12Q70.59 212.35 70.66 210.08Q70.73 207.81 71.92 207.04Q73.38 206.00 74.85 205.93Q76.31 205.86 77.36 207.04Q77.92 207.60 77.99 209.00Q78.06 210.40 78.34 210.54Q80.85 210.81 82.95 211.34Q85.04 211.86 87.24 212.84Q89.44 213.82 90.59 215.63Q91.75 217.45 91.47 219.82Q91.19 222.47 89.97 224.26Q88.74 226.04 86.75 226.98Q84.76 227.92 82.91 228.44Q81.06 228.97 78.51 229.53Q75.97 230.09 74.57 230.57Q73.73 235.67 73.91 238.29Q74.08 240.91 75.55 245.93Q75.55 246.14 75.83 246.53Q76.11 246.91 76.49 247.44Q76.87 247.96 77.08 248.31Q77.92 250.05 75.69 250.47Q73.45 250.89 71.92 250.19Q71.57 250.05 71.22 249.81Q70.87 249.57 70.62 249.36Q70.38 249.15 70.17 248.73Q69.96 248.31 69.82 248.06Q69.68 247.82 69.51 247.26Q69.33 246.70 69.26 246.42Q69.19 246.14 69.09 245.52Q68.98 244.89 68.98 244.64Q68.98 244.40 68.88 243.70Q68.77 243.00 68.77 242.86Q68.43 240.21 68.36 237.45Q68.29 234.69 68.53 231.87Q68.77 229.04 69.02 226.73Q69.26 224.43 69.68 221.22Q70.10 218.01 70.31 215.98M77.71 216.33Q76.31 217.73 75.69 220.97Q75.06 224.22 76.18 224.85Q78.34 225.83 81.38 224.22Q84.41 222.61 84.83 219.33Q85.25 216.89 82.46 216.33Q81.20 215.77 79.84 215.70Q78.48 215.63 77.71 216.33ZM93.98 211.37Q94.61 205.72 99.43 201.18Q101.24 199.43 103.82 198.32Q106.41 197.20 108.96 196.99Q111.51 196.78 113.67 198.07Q115.83 199.36 116.60 202.23Q116.74 203.20 116.01 203.94Q115.28 204.67 114.37 204.53Q113.53 204.46 111.57 203.97Q109.62 203.48 108.82 203.45Q108.01 203.41 105.92 203.83Q103.06 204.81 101.52 206.94Q99.98 209.07 99.81 211.69Q99.64 214.31 100.19 216.92Q100.75 219.54 101.94 222.06Q102.36 221.99 107.28 219.86Q112.20 217.73 113.95 218.29Q114.93 218.36 115.31 219.33Q115.69 220.31 115.28 221.29Q114.79 222.54 112.17 223.63Q109.55 224.71 107.11 225.62Q104.66 226.52 104.52 227.43Q104.17 229.11 106.41 231.87Q108.64 234.62 108.99 235.74Q109.62 237.00 107.63 237.77Q105.64 238.53 104.24 237.98Q102.50 236.86 100.75 233.68Q99.01 230.50 97.47 229.60Q97.26 229.53 95.87 229.60Q94.47 229.67 93.70 229.46Q93.00 229.53 92.65 228.69Q92.30 227.85 92.44 227.01Q92.72 226.52 94.15 225.69Q95.59 224.85 95.52 223.80Q95.45 222.47 94.61 218.11Q93.77 213.75 93.98 211.37ZM125.05 230.85Q121.56 228.76 120.09 224.85Q118.63 220.94 119.81 216.89Q120.44 214.58 122.26 212.04Q124.07 209.49 124.28 209.00Q125.68 206.35 128.51 206.63Q131.33 206.90 133.50 209.28Q135.80 211.93 136.92 216.12Q138.81 223.17 132.10 230.22Q130.99 231.41 128.72 231.55Q126.45 231.69 125.05 230.85M127.28 223.94Q129.66 224.50 130.78 222.89Q131.89 221.29 131.37 218.77Q130.85 216.26 129.03 214.24Q128.26 213.40 126.38 215.56Q123.79 218.43 124.14 221.08Q124.42 223.31 127.28 223.94ZM141.32 212.35Q141.32 212.07 141.18 211.09Q141.04 210.12 141.04 209.66Q141.04 209.21 141.18 208.55Q141.32 207.88 141.67 207.53Q142.72 205.93 144.88 205.86Q147.04 205.79 147.88 207.53Q148.86 209.49 148.79 213.15Q148.72 216.82 148.93 219.26Q149.00 219.54 149.14 219.65Q149.28 219.75 149.45 219.68Q149.63 219.61 149.77 219.51Q149.91 219.40 150.08 219.19Q150.26 218.98 150.33 218.91Q150.67 218.15 151.76 215.63Q152.84 213.12 153.43 211.97Q154.03 210.81 155.25 209.24Q156.47 207.67 157.94 206.83Q158.91 206.49 160.24 206.42Q161.57 206.35 162.37 207.25Q163.17 208.16 162.40 209.63Q161.57 211.23 159.61 214.62Q157.66 218.01 156.57 220.07Q155.49 222.13 154.41 225.30Q153.33 228.48 153.12 231.34Q152.84 234.97 150.57 240.10Q148.30 245.24 145.72 248.52Q143.76 250.89 140.20 250.96Q136.64 251.03 135.31 248.52Q132.87 243.63 135.66 241.96Q136.92 241.19 138.39 242.13Q139.85 243.07 140.13 244.68Q141.60 243.56 142.44 242.76Q143.27 241.96 143.80 240.84Q144.32 239.72 144.46 239.16Q144.60 238.60 144.95 236.75Q145.30 234.90 145.51 233.79Q145.93 231.62 144.39 228.17Q142.85 224.71 142.72 223.45Q142.51 221.57 142.02 217.90Q141.53 214.24 141.32 212.35ZM168.90 230.85Q165.41 228.76 163.94 224.85Q162.47 220.94 163.66 216.89Q164.29 214.58 166.11 212.04Q167.92 209.49 168.13 209.00Q169.53 206.35 172.35 206.63Q175.18 206.90 177.35 209.28Q179.65 211.93 180.77 216.12Q182.65 223.17 175.95 230.22Q174.83 231.41 172.56 231.55Q170.29 231.69 168.90 230.85M171.13 223.94Q173.51 224.50 174.62 222.89Q175.74 221.29 175.22 218.77Q174.69 216.26 172.88 214.24Q172.11 213.40 170.22 215.56Q167.64 218.43 167.99 221.08Q168.27 223.31 171.13 223.94Z" fill="#000000" style="fill: rgb(0, 0, 0);"></path></g><g id="SvgjsG1576" rel="mainfill" name="slogan_text" xmlns:name="slogan_text" transform="translate(78.210009598732,-62.51435470581055)" fill="#000000"><path d="M0.86 227.02Q0.86 224.79 1.98 223.70Q3.11 222.61 5.51 222.61Q6.61 222.61 7.62 222.76Q8.62 222.91 9.18 223.10L9.18 224.20L6.00 224.20Q3.06 224.20 3.06 227.02Q3.06 228.15 3.58 228.81Q4.09 229.47 4.87 229.92Q5.66 230.38 6.55 230.76Q7.44 231.13 8.23 231.71Q9.01 232.29 9.53 233.19Q10.04 234.10 10.04 235.59Q10.04 236.79 9.75 237.66Q9.45 238.53 8.80 239.11Q8.16 239.68 7.10 239.96Q6.05 240.24 4.53 240.24Q3.43 240.24 2.42 240.10Q1.42 239.95 0.86 239.76L0.86 238.65L4.04 238.65Q6.15 238.65 6.99 237.91Q7.84 237.16 7.84 235.59Q7.84 234.51 7.32 233.90Q6.81 233.29 6.02 232.86Q5.24 232.43 4.35 232.04Q3.45 231.65 2.67 231.06Q1.89 230.47 1.37 229.53Q0.86 228.59 0.86 227.02ZM14.82 240L12.61 240L12.61 222.86L14.82 222.86L14.82 228.12Q15.38 227.85 16.03 227.68Q16.68 227.51 17.51 227.51Q18.29 227.51 18.94 227.67Q19.59 227.83 20.07 228.24Q20.55 228.66 20.80 229.37Q21.06 230.08 21.06 231.18L21.06 240L18.86 240L18.86 231.18Q18.86 230.55 18.69 230.12Q18.51 229.69 18.20 229.43Q17.88 229.18 17.46 229.08Q17.04 228.98 16.53 228.98Q16.07 228.98 15.58 229.13Q15.09 229.27 14.82 229.47L14.82 240ZM30.61 233.88Q30.61 232.41 30.42 231.44Q30.22 230.47 29.90 229.90Q29.58 229.32 29.17 229.09Q28.75 228.86 28.29 228.86Q27.82 228.86 27.40 229.09Q26.99 229.32 26.67 229.90Q26.35 230.47 26.16 231.44Q25.96 232.41 25.96 233.88Q25.96 235.35 26.16 236.31Q26.35 237.28 26.67 237.86Q26.99 238.43 27.40 238.67Q27.82 238.90 28.29 238.90Q28.75 238.90 29.17 238.67Q29.58 238.43 29.90 237.86Q30.22 237.28 30.42 236.31Q30.61 235.35 30.61 233.88M32.82 233.88Q32.82 235.67 32.52 236.89Q32.23 238.11 31.65 238.86Q31.08 239.61 30.23 239.93Q29.39 240.24 28.29 240.24Q27.18 240.24 26.34 239.93Q25.49 239.61 24.92 238.86Q24.34 238.11 24.05 236.89Q23.76 235.67 23.76 233.88Q23.76 232.09 24.05 230.87Q24.34 229.64 24.92 228.89Q25.49 228.15 26.34 227.83Q27.18 227.51 28.29 227.51Q29.39 227.51 30.23 227.83Q31.08 228.15 31.65 228.89Q32.23 229.64 32.52 230.87Q32.82 232.09 32.82 233.88ZM37.59 228.49Q38.06 228.02 38.74 227.77Q39.43 227.51 40.16 227.51Q41.12 227.51 41.88 227.82Q42.64 228.12 43.15 228.86Q43.67 229.59 43.93 230.82Q44.20 232.04 44.20 233.88Q44.20 235.71 43.93 236.94Q43.67 238.16 43.15 238.90Q42.64 239.63 41.88 239.94Q41.12 240.24 40.16 240.24Q39.43 240.24 38.85 240.07Q38.28 239.90 37.71 239.63L37.71 244.90L35.51 244.90L35.51 227.76L37.35 227.76L37.47 228.49L37.59 228.49M37.71 238.29Q37.98 238.48 38.47 238.63Q38.96 238.78 39.43 238.78Q40.02 238.78 40.49 238.57Q40.97 238.36 41.30 237.81Q41.63 237.26 41.82 236.30Q42.00 235.35 42.00 233.88Q42.00 232.41 41.82 231.47Q41.63 230.52 41.30 229.97Q40.97 229.42 40.49 229.20Q40.02 228.98 39.43 228.98Q38.96 228.98 38.47 229.13Q37.98 229.27 37.71 229.47L37.71 238.29ZM55.35 240L53.14 240L53.14 222.86L61.47 222.86L61.47 224.57L55.35 224.57L55.35 230.57L60.49 230.57L60.49 232.29L55.35 232.29L55.35 240ZM69.92 233.88Q69.92 232.41 69.72 231.44Q69.53 230.47 69.21 229.90Q68.89 229.32 68.47 229.09Q68.06 228.86 67.59 228.86Q67.13 228.86 66.71 229.09Q66.29 229.32 65.98 229.90Q65.66 230.47 65.46 231.44Q65.27 232.41 65.27 233.88Q65.27 235.35 65.46 236.31Q65.66 237.28 65.98 237.86Q66.29 238.43 66.71 238.67Q67.13 238.90 67.59 238.90Q68.06 238.90 68.47 238.67Q68.89 238.43 69.21 237.86Q69.53 237.28 69.72 236.31Q69.92 235.35 69.92 233.88M72.12 233.88Q72.12 235.67 71.83 236.89Q71.53 238.11 70.96 238.86Q70.38 239.61 69.54 239.93Q68.69 240.24 67.59 240.24Q66.49 240.24 65.64 239.93Q64.80 239.61 64.22 238.86Q63.65 238.11 63.36 236.89Q63.06 235.67 63.06 233.88Q63.06 232.09 63.36 230.87Q63.65 229.64 64.22 228.89Q64.80 228.15 65.64 227.83Q66.49 227.51 67.59 227.51Q68.69 227.51 69.54 227.83Q70.38 228.15 70.96 228.89Q71.53 229.64 71.83 230.87Q72.12 232.09 72.12 233.88ZM77.02 240L74.82 240L74.82 227.76L76.68 227.76L76.80 228.73L76.92 228.73Q77.36 228.37 78.11 228.06Q78.86 227.76 79.96 227.76L81.18 227.76L81.18 229.59L78.73 229.59Q78.27 229.59 77.83 229.70Q77.39 229.81 77.02 230.08L77.02 240ZM96.12 222.86L98.33 222.86L94.16 234.61L94.16 240L91.96 240L91.96 234.61L87.80 222.86L90.00 222.86L93.06 231.55L96.12 222.86ZM106.53 233.88Q106.53 232.41 106.33 231.44Q106.14 230.47 105.82 229.90Q105.50 229.32 105.09 229.09Q104.67 228.86 104.20 228.86Q103.74 228.86 103.32 229.09Q102.91 229.32 102.59 229.90Q102.27 230.47 102.07 231.44Q101.88 232.41 101.88 233.88Q101.88 235.35 102.07 236.31Q102.27 237.28 102.59 237.86Q102.91 238.43 103.32 238.67Q103.74 238.90 104.20 238.90Q104.67 238.90 105.09 238.67Q105.50 238.43 105.82 237.86Q106.14 237.28 106.33 236.31Q106.53 235.35 106.53 233.88M108.73 233.88Q108.73 235.67 108.44 236.89Q108.15 238.11 107.57 238.86Q107.00 239.61 106.15 239.93Q105.31 240.24 104.20 240.24Q103.10 240.24 102.26 239.93Q101.41 239.61 100.84 238.86Q100.26 238.11 99.97 236.89Q99.67 235.67 99.67 233.88Q99.67 232.09 99.97 230.87Q100.26 229.64 100.84 228.89Q101.41 228.15 102.26 227.83Q103.10 227.51 104.20 227.51Q105.31 227.51 106.15 227.83Q107.00 228.15 107.57 228.89Q108.15 229.64 108.44 230.87Q108.73 232.09 108.73 233.88ZM117.67 227.76L119.88 227.76L119.88 240L118.04 240L117.92 239.27L117.80 239.27Q117.33 239.73 116.64 239.99Q115.96 240.24 115.22 240.24Q114.34 240.24 113.64 240.09Q112.95 239.93 112.46 239.51Q111.97 239.09 111.70 238.38Q111.43 237.67 111.43 236.57L111.43 227.76L113.63 227.76L113.63 236.57Q113.63 237.21 113.80 237.64Q113.98 238.07 114.29 238.32Q114.61 238.58 115.03 238.68Q115.44 238.78 115.96 238.78Q116.42 238.78 116.91 238.63Q117.40 238.48 117.67 238.29L117.67 227.76Z" fill="#000000" style="fill: rgb(0, 0, 0);"></path></g><g id="SvgjsG1577" transform="translate(0,-0.10000000149011612) scale(2.6)" rel="mainfill" name="outline_container" xmlns:name="outlineContainer_mainfill" fill="#284907"><g fill="#284907"><path d="M90.8 84.8l-.7.8a53.7 53.7 0 0 1-6 5.7l-1.4 1.1-.7.5-.7.5-.7.5-.8.5-.8.5-.8.5-1.6.9-.4.2-.4.2-.8.4-.8.4-.8.4-1.6.8-2.1.9-1.4.5-1.3.5-1.3.4-.6.2h-.6l-1.2.3-.6.2h-.6l-2.3.5-2.7.4-1.5.3h2.3l2.2-.3 2.1-.4.9-.2.9-.2.8-.2.8-.2 1.4-.3 1.3-.4 1.7-.6a59.2 59.2 0 0 0 7.2-3.3l1.7-1 1.6-1L82 94l.8-.5.8-.6 2.1-1.7 1.1-.9 1-.9.5-.5.5-.5 1-1.1.5-.5.5-.5.9-1.1.2-.3.2-.3.4-.6.9-1.1.8-1.2.4-.6.2-.3.2-.3 1-1.6.9-1.6.5-.8.4-.8.4-.8.2-.4.2-.4.8-1.7.4-.9.3-.9.3-.9.3-.9.3-.9.2-.5v-.5l.6-1.9.5-2c.2-.7.3-1.3.4-2l.2-1c.1-.3.1-.7.1-1l.2-1.6c0-.5.1-1 .1-1.3V55v-1c0-.4 0-1.2-.1-1.6s-.1-1.1-.3.1v1.6c0 .3 0 .5-.1.8v2.5l-.2 1.7a52 52 0 0 1-2.2 8.9 61.2 61.2 0 0 1-3.7 8.5l-.6 1.1-.4.6-.4.6-.5.9-.3.4-.3.4-1.2 1.7-1.5 1.8zM10.6 82.4l-.3-.5-.9-1.3L9 80l-.4-.6-.7-1.2-.8-1.4a54.8 54.8 0 0 1-3.3-7.5l-.5-1.6-.3-.8-.2-.9-.5-1.7-.4-1.7-.2-.8V61l-.3-1.6-.2-1.6V57c0-.3 0-.5-.1-.8v-4.4-1.5-.7-.7a48.6 48.6 0 0 1 4.1-18.4l.3-.6.3-.6.7-1.3.3-.6.3-.6.7-1.2.7-1.1.7-1.1.7-1 .7-1 .5-.7.5-.7.9-1.2.8-1 .4-.5.4-.5c1.3-1.4 1-1.4-.6.2a50.8 50.8 0 0 0-6.7 8.7l-.5.8-.3.4-.2.4-.8 1.8c-.6 1.2-1.1 2.4-1.6 3.6l-.4.9-.3.9-.6 1.9-.5 1.9v.9l-.2.9-.2 1-.2 1-.2 1v1.1l-.5 2.4-.1 2.6v2.5H0v5.9l.3 2.1.4 2.1v1l.2 1 .2 1 .3 1a52 52 0 0 0 2.2 6.3l.7 1.6.3.7.3.6.6 1.2.2.3.2.3.3.5.6.9.3.5.4.5.7 1 .3.4.3.4.8 1 .5.6.4.3c.1.1.1 0 0-.2z" fill="#284907" style="fill: rgb(40, 73, 7);"></path><path d="M73.6 100.9l-.7.2-.7.2-1.5.5-.8.2-.8.2-1.7.4-1.7.4-.8.2h-.8l-1.6.3h-1l-1.3.2h-1.3a56.2 56.2 0 0 1-10.9.3 44.2 44.2 0 0 1-10.5-2.4l-1.3-.5-.7-.3h-.3l2.8.9a48 48 0 0 0 9.2 1.6h.4l-3-.4-1.5-.3-1.5-.3-1.5-.4-.7-.2h-.7l-1.5-.4-.7-.2-.7-.3a54.5 54.5 0 0 1-6.8-3.3l-.8-.4a51.8 51.8 0 0 1-8.2-6.2l-1.2-1.1-.6-.6-.6-.6-1.1-1.2-.5-.6-.5-.6-1-1.2-1-1.3-.5-.7-.4-.7-1-1.3-.8-1.4-.8-1.4-.8-1.4-.2-.4-.2-.4-.3-.7-.3-.7-.2-.3v-.2h-.1l-.6-1.5-.3-.7-.3-.7-.5-1.5-.2-.8-.2-.8-.2-.8v-.8l-.4-1.6v-.8l-.2-.8-.2-1.2-.2-1.2-.2-1.2c-.1-.4-.1-.8-.1-1.2A44 44 0 0 1 4 46.7a51.6 51.6 0 0 1 2.6-10l.2-.6a51.7 51.7 0 0 1 2.1-5l.2-.4.2-.3.4-.7.4-.7.2-.3.2-.3c.5-.9 1.1-1.8 1.6-2.7l.9-1.3.9-1.3.5-.6.5-.6 1-1.2 1.1-1.3.6-.6.6-.6 1.2-1.2 1.2-1.2.6-.6.7-.5 1.3-1.1 1.4-1 .7-.5.7-.5a51.9 51.9 0 0 1 8.8-4.8l1.2-.5.6-.2.6-.2 1.2-.4 1.2-.4 1.2-.4 1.2-.3 1-.4h1.2l2.1-.4 2-.3h14l2 .3 2 .4 2 .5.6.2 1.9.5 2 .7 1 .4 1 .4 1.9.9.8.4.8.4.8.5.8.5 1.2.7a51.3 51.3 0 0 1 6.3 5.3l1.6 1 1.3 1.4a51.4 51.4 0 0 1 10.4 17.8l.2.7.2.7.4 1.3.2.7.2.7.3 1.3v1.5l.3 1.5.2 1.5c.1.5.1 1 .2 1.5.2 2.4.3 4 .4 4.6s.2.2.2-1.3V47 45.7a37.1 37.1 0 0 0-1.3-7.4 53.1 53.1 0 0 0-4.6-11.4 54 54 0 0 0-7.1-10 56.7 56.7 0 0 0-5.5-5.3 50 50 0 0 0-6.1-4.3l-.5-.3-.7-.4-.7-.4-.3-.2-.4-.2-2.9-1.4A46.4 46.4 0 0 0 62.9 1L61.2.7h-1.8L56.1.1h-9.6l-1.6.4h-1.7l-1.6.5-1.6.4-3.2.8-.8.2-.8.3-.8.3h-.8l-1.9 1-1.9.9-4 2.1-.7.4-.6.4-1 .7-.4.3-.4.3-.6.5c-.7.6-.5.5.7-.2a60.1 60.1 0 0 1 7.5-4.1A55.9 55.9 0 0 1 49.2.4h8.1l2.4.3 2.2.4 1.2.3 1.3.3 1.3.3 1.3.4.6.2.6.2 1.2.4 2.3.9a48.1 48.1 0 0 1 7.4 3.8H79a53.7 53.7 0 0 0-6-2.5l-1.6-.6h-.8l-.8-.3-.8-.4h-.8l-1.6-.4-1-.2a59.4 59.4 0 0 0-9.8-1.3 40.1 40.1 0 0 0-11.4.9h-.3A51.2 51.2 0 0 0 37.3 5L34 6h-.4l-.4.2-.8.4-1.6.8-1.6.8-.8.4-.8.5-.8.5-.7.5-1.5 1-1.4 1.1-.7.5-.7.6-1.4 1.1-1.3 1.2-.6.6-.6.6-1.1 1.2-1.1 1.2-.6.6-.5.6a53.4 53.4 0 0 0-6 9 48.6 48.6 0 0 0-3.5 8.4 54.8 54.8 0 0 0-1.9 8.9L3 48.5v3.3c0 .6 0 1.2-.1 1.8s0 1.6 0 2.4.1 1.7.2 2.5.2 1.7.3 2.6v1.3l.2 1.3v.7l.2.7.3 1.4v.7l.2.7.4 1.4.8 2.3v.6l.2.6.5 1.1.2.6.3.5.5 1.1c.3.7.7 1.4 1.1 2.1S9.4 80.1 10 81l.2.3.2.3.5.7.5.7.5.7 2 2.6 1 1.3 1.1 1.2A48.2 48.2 0 0 0 31 100l1.4.6.3.2h.4l.7.3 1.4.6 1.4.5.7.2.7.2 1.4.4h.7l.7.2 1.4.4a52.3 52.3 0 0 0 5.8 1 51.1 51.1 0 0 0 18.6-1.4l1-.3 1-.3 1-.3 1-.4.9-.4.5-.2.5-.2 1.9-.9h-.2z" fill="#284907" style="fill: rgb(40, 73, 7);"></path><path d="M105.6 44v-.7l-.2-.7-.4-1.5-.2-.7-.2-.7-.4-1.5v-.7l-.3-.7-.5-1.4-.6-1.4-.3-.7V33l-.2-.4-1-2-1.1-1.9-.6-1c-.1-.1-.1-.1 0 .2l.6 1.2.5 1 .3.7.3.7.6 1.4.3.7.3.7.6 1.4.5 1.4.5 1.4.4 1.4.2.7.2.7.3 1 .2 1 .4 2.1c.2 1.4.4 2.7.6 3.7s.1.9.1 1.3 0 1.1.1 1.7v6.5l-.2 1.4c-.1.5-.2 1-.2 1.4l-.2 1.4-.3 1.5-.3 1.5c-.1.5-.5 2-.8 3l-.4 1.2-.4 1.2-.4 1.2-.5 1.2-.5 1.2-.5 1.1-.5 1.1-.6 1.1-.6 1.1-.7 1.1-.4.6-.4.6-.8 1.1-.5.7-.6.7-.6.7-.6.8-1.6 1.8-.6.7-.6.7a55.3 55.3 0 0 1-14.9 11.6l-2.4 1.3 1.5-.6.8-.3.8-.4 1.7-.9 1.8-1 .5-.3.5-.3 1-.7 2-1.4a57.2 57.2 0 0 0 6.4-5.8 50.4 50.4 0 0 0 6.9-9.2l.5-.8.5-.8.5-.9.4-.9.8-1.7.4-.9.4-.9a55.2 55.2 0 0 0 2.4-7.3l.2-.7V65l.2-1.2v-7.4-1-1a52.3 52.3 0 0 0-.1-10.4z" fill="#284907" style="fill: rgb(40, 73, 7);"></path><circle cx="92.2" cy="23.5" r=".7"></circle><circle cx="98.8" cy="25.4" r=".5"></circle><circle cx="10.6" cy="73.3" r="1.1"></circle><circle cx="12.4" cy="88.2" r=".7"></circle><circle cx="15.4" cy="90.4" r=".7"></circle><circle cx="19.8" cy="10.8" r=".7"></circle><circle cx="74.1" cy="102.8" r=".5"></circle><circle cx="93" cy="18.1" r=".7"></circle></g></g></svg>