<svg xmlns="http://www.w3.org/2000/svg" version="1.1" xmlns:xlink="http://www.w3.org/1999/xlink" xmlns:svgjs="http://svgjs.com/svgjs" height="252.0567626953125" width="245.55852050781252"><defs id="SvgjsDefs1006"></defs><g id="SvgjsG1007" rel="mainfill" name="main_text" xmlns:name="main_text" transform="translate(44.439260578155526,-106.0566177368164)" fill="#a7e719"><path d="M16.97 235.19Q16.97 234.82 16.83 233.99Q16.70 233.15 16.50 232.18Q16.30 231.22 16.07 230.45Q15.83 229.68 15.63 229.45Q15.43 229.21 14.96 228.84Q14.50 228.48 13.89 228.08Q13.29 227.68 12.64 227.27Q11.99 226.87 11.36 226.51L6.55 223.67Q5.44 223.07 4.81 222.30Q4.28 221.66 4.28 220.76Q4.28 219.66 5.01 219.16Q5.18 219.02 5.86 218.79Q6.55 218.56 7.43 218.32Q8.32 218.09 9.05 217.92Q9.79 217.76 10.02 217.76Q10.35 217.76 10.91 218.02Q11.46 218.29 12.04 218.69Q12.63 219.09 13.09 219.54Q13.56 219.99 13.69 220.33Q13.83 220.59 13.93 221.00Q14.03 221.40 14.03 221.80Q14.03 222.47 13.66 222.90Q13.56 223.00 13.33 223.00Q12.56 223.00 11.59 222.25Q10.62 221.50 10.45 220.29Q10.45 220.26 10.45 220.26Q10.39 220.26 10.15 220.90Q9.92 221.53 9.92 221.86L10.59 222.90L13.63 223.93L14.33 223.90L15.70 218.56L15.23 218.56Q15.16 218.82 15.00 219.09Q14.96 219.13 14.96 219.16Q14.76 219.39 14.36 219.39Q14.33 219.39 14.03 219.09Q13.43 218.49 12.96 218.12Q12.49 217.76 12.16 217.62Q11.89 217.52 11.21 217.40Q10.52 217.29 9.64 217.19Q8.75 217.09 8.08 217.02Q7.41 216.95 7.25 216.95Q6.35 216.95 5.18 217.54Q4.01 218.12 3.34 218.79Q2.17 219.99 2.17 221.76Q2.17 223.20 3.14 224.27Q3.31 224.44 3.67 224.75Q4.04 225.07 4.53 225.40Q5.01 225.74 5.43 225.99Q5.84 226.24 6.11 226.27L9.55 227.01L9.75 227.04Q10.45 227.21 10.94 227.36Q11.42 227.51 11.92 227.91Q12.42 228.31 12.88 229.08Q13.33 229.85 13.63 231.08Q13.76 231.55 13.76 232.12Q13.76 232.89 13.43 234.19Q13.26 234.89 13.26 235.12Q13.26 235.42 13.03 235.94Q12.79 236.46 12.46 236.99Q12.12 237.53 11.77 237.96Q11.42 238.40 11.19 238.56Q11.02 238.73 10.50 238.91Q9.99 239.10 9.35 239.27Q8.72 239.43 8.08 239.53Q7.45 239.63 7.05 239.63Q5.95 239.57 5.21 239.33Q4.48 239.10 3.91 238.56Q3.34 238.03 2.94 237.06Q2.54 236.09 2.27 234.49Q2.27 234.49 2.27 234.46Q2.24 234.42 2.24 234.42Q2.24 234.26 2.42 233.87Q2.61 233.49 2.87 233.00Q3.14 232.52 3.37 232.13Q3.61 231.75 3.67 231.65Q3.81 231.52 4.48 231.17Q5.14 230.81 5.54 230.81Q6.05 231.12 6.45 231.68Q6.75 232.05 6.98 232.28Q7.62 232.85 7.62 233.22Q7.62 233.49 7.21 233.92Q6.85 234.36 6.65 234.74Q6.45 235.12 6.38 235.72Q6.38 235.69 6.78 235.26Q7.41 234.52 7.85 233.97Q8.28 233.42 8.35 232.99Q8.05 232.38 7.45 230.75Q7.05 229.71 6.53 229.23Q6.01 228.74 5.41 228.74Q4.74 228.74 4.02 229.23Q3.31 229.71 2.72 230.40Q2.14 231.08 1.79 231.57Q1.44 232.05 1.30 232.28Q1.30 232.38 1.14 233.25Q1.00 233.99 0.89 234.57Q0.77 235.16 0.77 235.46Q0.77 235.66 0.83 235.66Q0.87 235.66 1.00 236.01Q1.14 236.36 1.44 237.09Q1.74 237.93 2.09 238.83Q2.44 239.73 2.77 240.50Q3.11 241.27 3.41 241.80Q3.71 242.34 3.91 242.40Q4.11 242.47 4.49 242.69Q4.88 242.91 5.88 243.47Q7.31 244.31 8.05 244.69Q8.78 245.08 9.05 245.08Q10.12 245.08 11.39 244.54Q12.66 244.01 13.43 243.34Q13.76 243.04 14.35 241.94Q14.93 240.84 15.53 239.43Q16.13 238.03 16.55 236.84Q16.97 235.66 16.97 235.19ZM36.01 218.82Q34.94 218.89 34.12 219.01Q33.30 219.13 33.13 219.29Q32.80 219.63 32.80 220.90L33.17 238.60Q33.20 239.23 33.33 239.82Q33.47 240.40 33.60 240.60Q33.80 240.80 34.59 241.04Q35.37 241.27 35.97 241.30L35.97 241.70L26.89 241.64L26.89 241.24Q27.66 241.14 28.54 240.95Q29.43 240.77 29.53 240.60Q29.69 240.43 29.74 239.90Q29.79 239.37 29.83 238.36L30.16 230.11L22.91 231.25L22.51 237.56Q22.48 238.03 22.44 239.10Q22.41 240.17 22.41 241.17Q22.41 241.94 22.44 242.45Q22.48 242.97 22.54 243.04Q22.68 243.14 23.41 243.21Q24.15 243.27 25.42 243.31Q26.05 243.34 26.45 243.37L26.45 243.77L16.83 244.01L16.83 243.64Q17.54 243.57 17.87 243.52Q18.20 243.47 18.80 243.37Q19.41 243.27 19.76 243.17Q20.11 243.07 20.17 243.01Q20.37 242.81 20.51 242.05Q20.64 241.30 20.64 239.40Q20.64 239.13 20.64 238.50Q20.61 237.60 20.61 237.26L19.84 217.12Q19.81 216.45 19.62 215.53Q19.44 214.62 19.24 214.42Q19.07 214.28 18.54 214.15Q18.00 214.01 17.37 213.98L17.37 213.58L26.12 213.58L26.12 213.98Q25.15 214.05 24.21 214.17Q23.28 214.28 23.11 214.42Q22.95 214.58 22.95 215.55Q22.95 215.95 22.98 216.42Q22.98 217.05 22.98 217.12L22.85 229.48L30.26 228.41L30.79 220.63Q30.79 219.96 30.69 219.59Q30.59 219.23 30.39 219.02Q30.23 218.86 29.21 218.62Q28.19 218.39 27.52 218.32L27.52 217.92L36.04 218.39L36.04 218.82L36.01 218.82M22.18 230.45L22.28 230.88L30.89 229.68L30.96 229.18L22.18 230.45ZM55.48 232.12Q55.48 229.95 55.06 227.63Q54.64 225.30 53.81 223.97Q53.14 222.87 52.25 221.81Q51.37 220.76 50.40 219.94Q49.43 219.13 48.46 218.66Q47.49 218.19 46.59 218.19Q45.82 218.19 44.96 218.54Q44.09 218.89 43.27 219.43Q42.45 219.96 41.73 220.54Q41.02 221.13 40.18 221.90Q39.88 222.13 39.65 222.33Q39.01 222.90 38.54 223.90Q38.08 224.90 37.76 226.12Q37.44 227.34 37.26 228.43Q37.07 229.51 36.91 230.85Q36.77 231.68 36.77 232.69Q36.77 234.46 37.22 236.06Q37.68 237.66 38.58 238.46Q39.21 239.03 40.15 239.62Q41.08 240.20 42.17 240.68Q43.25 241.17 44.32 241.45Q45.39 241.74 46.33 241.74Q47.80 241.74 49.13 240.94Q50.47 240.13 52.24 238.66Q52.57 238.36 52.67 238.30Q55.48 236.06 55.48 232.12M42.62 242.10L40.85 241.30L39.38 240.57L37.81 239.67L39.28 241.44L39.91 241.87L42.62 242.10M51.57 232.05Q51.57 232.15 51.60 232.42Q51.60 232.69 51.60 232.82Q51.60 233.72 51.44 234.76Q51.27 235.79 50.97 236.79Q50.67 237.80 50.30 238.58Q49.93 239.37 49.57 239.77Q48.96 240.40 48.53 240.58Q48.10 240.77 47.43 240.77Q47.29 240.77 46.96 240.73Q46.39 240.73 46.33 240.73Q46.16 240.73 45.86 240.73Q45.22 240.70 44.87 240.65Q44.52 240.60 44.17 240.35Q43.82 240.10 43.42 239.55Q43.02 239.00 42.52 238.06Q42.25 237.53 41.87 236.51Q41.48 235.49 41.02 234.07Q40.55 232.65 40.10 231.10Q39.65 229.55 39.24 228.11Q38.94 227.01 38.94 226.07Q38.94 224.07 40.28 222.70Q40.75 222.20 41.50 221.58Q42.25 220.96 43.14 220.38Q44.02 219.79 44.86 219.43Q45.69 219.06 46.29 219.06Q47.43 219.06 48.30 219.74Q49.16 220.43 49.72 221.55Q50.27 222.67 50.53 223.98Q50.80 225.30 50.87 226.57Q50.90 227.37 51.17 229.21Q51.44 230.81 51.57 232.05M49.16 224.64L48.86 221.50L46.89 219.73L47.70 221.93L49.16 224.64ZM74.95 219.36Q74.58 218.82 74.26 218.52Q73.95 218.22 73.38 217.82Q73.01 217.56 72.88 217.46Q72.44 217.12 71.59 216.99Q70.74 216.85 69.61 216.85Q68.57 216.85 67.13 216.99L57.61 217.79L56.48 218.22Q56.68 218.22 57.05 218.26Q58.35 218.29 59.84 218.47Q61.32 218.66 63.16 219.13Q63.33 219.16 63.39 220.14Q63.46 221.13 63.46 222.40Q63.46 222.77 63.43 223.40Q63.43 223.67 63.43 223.80L61.72 241.97Q61.69 242.30 61.52 243.07Q61.36 243.84 61.17 244.61Q60.99 245.38 60.79 245.96Q60.59 246.55 60.52 246.65Q60.42 246.81 59.57 246.88Q58.72 246.95 57.38 247.01Q57.25 247.01 57.15 247.01L57.15 247.45L68.10 249.75L68.10 249.35Q67.77 249.32 67.23 249.12Q66.70 248.92 66.13 248.63Q65.56 248.35 65.11 248.10Q64.66 247.85 64.56 247.75Q64.13 247.38 64.13 246.08L64.66 231.75Q65.30 231.75 65.70 231.78L66.60 231.78Q67.10 231.78 68.07 231.82Q69.27 231.88 69.77 231.88Q71.41 231.88 72.31 231.52Q74.58 230.58 75.57 228.84Q76.55 227.11 76.55 224.97Q76.55 223.40 76.09 221.88Q75.62 220.36 74.95 219.36M72.28 224.13Q72.41 224.64 72.41 225.97Q72.41 227.41 72.19 228.61Q71.98 229.81 71.48 230.05Q71.21 230.15 70.66 230.33Q70.11 230.51 69.37 230.71Q68.64 230.92 68.00 231.05Q67.37 231.18 67.00 231.18Q66.93 231.18 66.20 231.12Q65.63 231.08 65.56 231.08Q65.46 231.05 65.46 231.05Q65.10 230.98 64.76 230.95L65.50 219.13Q65.53 219.06 65.56 218.69Q65.60 218.22 65.66 218.19Q65.70 218.16 65.76 218.09Q65.96 217.86 66.37 217.86Q67.37 217.86 68.15 217.92Q68.94 217.99 69.34 218.16Q69.77 218.36 70.22 219.07Q70.67 219.79 71.09 220.78Q71.51 221.76 71.81 222.63Q72.11 223.50 72.28 224.13ZM101.20 224.13Q101.14 223.73 100.88 223.02Q100.63 222.30 100.28 221.48Q99.93 220.66 99.62 220.08Q99.30 219.49 99.13 219.43Q99.00 219.33 97.41 219.04Q95.82 218.76 93.84 218.46Q91.85 218.16 90.06 217.92Q88.28 217.69 87.78 217.69L85.64 217.69Q85.20 217.69 85.04 217.86Q84.97 218.02 84.90 218.49L84.13 226.61L87.84 226.87Q88.58 226.87 89.18 226.64Q89.78 226.41 90.01 226.17Q90.15 226.04 90.21 225.05Q90.28 224.07 90.28 223.00Q90.28 221.86 90.21 221.40L90.85 221.16Q90.81 221.96 90.81 223.10Q90.81 224.07 90.85 225.05Q90.88 226.04 90.95 226.84Q91.02 227.64 91.18 229.88Q91.35 232.12 91.38 232.52Q91.42 232.92 91.42 233.12L90.85 233.12Q90.81 232.79 90.68 232.23Q90.55 231.68 90.40 231.17Q90.25 230.65 90.11 230.25Q89.98 229.85 89.88 229.75Q89.51 229.35 88.99 229.03Q88.48 228.71 87.84 228.71L84.13 227.78L83.27 245.58Q83.27 246.15 83.47 246.61Q83.67 247.08 83.90 247.31Q84.20 247.58 84.60 247.58Q85.04 247.58 85.55 247.23Q86.07 246.88 86.67 246.08L87.94 247.68L76.72 250.59L76.22 248.78Q77.05 249.22 77.82 249.22Q78.66 249.22 79.21 248.83Q79.76 248.45 80.16 248.02L80.19 247.95Q80.53 247.62 80.53 246.15L80.09 221.00Q80.09 220.80 80.13 219.89Q80.19 218.59 80.19 218.12Q80.19 217.49 80.13 217.39Q79.69 216.55 78.46 216.55Q77.59 216.55 76.59 216.90Q75.58 217.25 74.75 217.69L75.45 215.82L100.70 217.46L101.84 224.13L101.20 224.13ZM114.50 232.12Q114.50 229.95 114.08 227.63Q113.66 225.30 112.83 223.97Q112.16 222.87 111.27 221.81Q110.39 220.76 109.42 219.94Q108.45 219.13 107.48 218.66Q106.51 218.19 105.61 218.19Q104.84 218.19 103.97 218.54Q103.11 218.89 102.29 219.43Q101.47 219.96 100.75 220.54Q100.03 221.13 99.20 221.90Q98.90 222.13 98.66 222.33Q98.03 222.90 97.56 223.90Q97.09 224.90 96.78 226.12Q96.46 227.34 96.28 228.43Q96.09 229.51 95.92 230.85Q95.79 231.68 95.79 232.69Q95.79 234.46 96.24 236.06Q96.69 237.66 97.59 238.46Q98.23 239.03 99.16 239.62Q100.10 240.20 101.19 240.68Q102.27 241.17 103.34 241.45Q104.41 241.74 105.34 241.74Q106.81 241.74 108.15 240.94Q109.49 240.13 111.26 238.66Q111.59 238.36 111.69 238.30Q114.50 236.06 114.50 232.12M101.64 242.10L99.87 241.30L98.40 240.57L96.83 239.67L98.30 241.44L98.93 241.87L101.64 242.10M110.59 232.05Q110.59 232.15 110.62 232.42Q110.62 232.69 110.62 232.82Q110.62 233.72 110.45 234.76Q110.29 235.79 109.99 236.79Q109.69 237.80 109.32 238.58Q108.95 239.37 108.58 239.77Q107.98 240.40 107.55 240.58Q107.11 240.77 106.45 240.77Q106.31 240.77 105.98 240.73Q105.41 240.73 105.34 240.73Q105.18 240.73 104.88 240.73Q104.24 240.70 103.89 240.65Q103.54 240.60 103.19 240.35Q102.84 240.10 102.44 239.55Q102.04 239.00 101.54 238.06Q101.27 237.53 100.88 236.51Q100.50 235.49 100.03 234.07Q99.57 232.65 99.11 231.10Q98.66 229.55 98.26 228.11Q97.96 227.01 97.96 226.07Q97.96 224.07 99.30 222.70Q99.77 222.20 100.52 221.58Q101.27 220.96 102.15 220.38Q103.04 219.79 103.87 219.43Q104.71 219.06 105.31 219.06Q106.45 219.06 107.31 219.74Q108.18 220.43 108.73 221.55Q109.28 222.67 109.55 223.98Q109.82 225.30 109.89 226.57Q109.92 227.37 110.19 229.21Q110.45 230.81 110.59 232.05M108.18 224.64L107.88 221.50L105.91 219.73L106.71 221.93L108.18 224.64ZM139.61 218.46Q139.34 218.46 138.91 218.56Q138.48 218.66 137.99 218.82Q137.51 218.99 137.12 219.18Q136.74 219.36 136.61 219.53Q136.44 219.69 135.90 220.81Q135.37 221.93 134.44 224.00Q133.47 226.14 132.92 227.32Q132.36 228.51 131.93 229.31L128.19 236.23L124.42 245.61Q124.38 245.68 124.18 246.18Q123.85 246.91 123.68 247.38Q123.51 247.85 123.51 248.08Q123.51 248.15 123.55 248.22L123.55 248.25Q123.65 248.35 124.08 248.48Q124.52 248.62 125.10 248.77Q125.68 248.92 126.29 249.02Q126.89 249.12 127.29 249.12L126.99 249.85L115.06 249.59L115.06 249.02Q115.30 249.02 115.56 248.98Q116.73 248.92 117.48 248.85Q118.24 248.78 118.37 248.62Q118.47 248.55 118.67 248.22Q118.87 247.88 119.14 247.40Q119.41 246.91 119.77 246.20Q120.14 245.48 120.31 245.14Q120.71 244.38 120.84 244.11L126.29 233.99L123.88 230.05Q123.65 229.65 122.53 228.14Q121.41 226.64 120.01 224.87Q118.60 223.10 117.52 221.76Q116.43 220.43 116.23 220.29Q116.06 220.16 115.70 220.16Q115.43 220.16 114.86 220.26Q114.36 220.33 114.16 220.33L114.16 219.93L122.61 216.02L122.91 216.95Q122.78 216.95 122.41 217.10Q122.04 217.25 121.59 217.49Q121.14 217.72 119.74 218.49Q119.20 218.79 119.17 218.79Q118.94 218.86 118.72 219.58Q118.50 220.29 118.50 220.63Q118.50 220.69 118.54 220.90L118.57 220.96Q118.60 221.03 118.95 221.58Q119.30 222.13 119.61 222.60L121.81 226.01Q124.88 230.71 124.88 230.75L126.82 232.82L129.93 225.27Q130.03 225.17 130.29 224.54Q130.56 223.90 130.98 222.87Q131.40 221.83 131.61 221.25Q131.83 220.66 131.83 220.63Q131.86 220.53 131.96 220.04Q132.06 219.56 132.06 219.49Q132.06 218.96 131.66 218.86Q131.56 218.82 131.16 218.77Q130.76 218.72 130.16 218.69Q129.12 218.66 128.49 218.66L128.49 218.22L139.61 217.62L139.61 218.46L139.61 218.46ZM155.91 232.12Q155.91 229.95 155.49 227.63Q155.08 225.30 154.24 223.97Q153.57 222.87 152.69 221.81Q151.80 220.76 150.83 219.94Q149.87 219.13 148.90 218.66Q147.93 218.19 147.03 218.19Q146.26 218.19 145.39 218.54Q144.52 218.89 143.70 219.43Q142.89 219.96 142.17 220.54Q141.45 221.13 140.61 221.90Q140.31 222.13 140.08 222.33Q139.45 222.90 138.98 223.90Q138.51 224.90 138.19 226.12Q137.88 227.34 137.69 228.43Q137.51 229.51 137.34 230.85Q137.21 231.68 137.21 232.69Q137.21 234.46 137.66 236.06Q138.11 237.66 139.01 238.46Q139.65 239.03 140.58 239.62Q141.52 240.20 142.60 240.68Q143.69 241.17 144.76 241.45Q145.82 241.74 146.76 241.74Q148.23 241.74 149.57 240.94Q150.90 240.13 152.67 238.66Q153.01 238.36 153.11 238.30Q155.91 236.06 155.91 232.12M143.05 242.10L141.28 241.30L139.81 240.57L138.24 239.67L139.71 241.44L140.35 241.87L143.05 242.10M152.00 232.05Q152.00 232.15 152.04 232.42Q152.04 232.69 152.04 232.82Q152.04 233.72 151.87 234.76Q151.70 235.79 151.40 236.79Q151.10 237.80 150.73 238.58Q150.37 239.37 150.00 239.77Q149.40 240.40 148.96 240.58Q148.53 240.77 147.86 240.77Q147.73 240.77 147.39 240.73Q146.83 240.73 146.76 240.73Q146.59 240.73 146.29 240.73Q145.66 240.70 145.31 240.65Q144.96 240.60 144.61 240.35Q144.25 240.10 143.85 239.55Q143.45 239.00 142.95 238.06Q142.68 237.53 142.30 236.51Q141.92 235.49 141.45 234.07Q140.98 232.65 140.53 231.10Q140.08 229.55 139.68 228.11Q139.38 227.01 139.38 226.07Q139.38 224.07 140.71 222.70Q141.18 222.20 141.93 221.58Q142.68 220.96 143.57 220.38Q144.46 219.79 145.29 219.43Q146.13 219.06 146.73 219.06Q147.86 219.06 148.73 219.74Q149.60 220.43 150.15 221.55Q150.70 222.67 150.97 223.98Q151.24 225.30 151.30 226.57Q151.34 227.37 151.60 229.21Q151.87 230.81 152.00 232.05M149.60 224.64L149.30 221.50L147.33 219.73L148.13 221.93L149.60 224.64Z" fill="#a7e719" style="fill: rgb(167, 231, 25);"></path></g><g id="SvgjsG1008" transform="translate(0.00022363662719726562,0.0019228756427764893) scale(0.8)" rel="mainfill" name="outline_container" xmlns:name="outlineContainer_mainfill" fill="#A9CF54"><title>template-19</title><g id="Слой_2" data-name="Слой 2" fill="#A9CF54"><g id="Wreaths" fill="#A9CF54"><path d="M132.62,25.94c4.13-2.59,8.44-5,13.26-6,5.32-1.09,10.69-.36,16,.51-.29-.59-2-3.28-1.17-3.52.41-.12,1.75.61,2.17.76l1.14.4.9.32c.33.23.53.1.6-.4,1-1.07,1.64-2.91,2.44-4.18a14.7,14.7,0,0,1,2.51-3.1,10,10,0,0,1,7.14-2.65c2.53.11,5.81,1.54,7.07,3.89a5.08,5.08,0,0,1,.45,1.88c.07.56-.07,1.84.26,2.29.2.27,1.09.49,1.4.69a5.09,5.09,0,0,1,2.34,5c-.18,1.38-1.28,2.25-2.23,3.15s-1.07,1.46-.87,2.83a6,6,0,0,1-.8,4.13,9.68,9.68,0,0,1-7.51,4.51c-3.43.21-6.94-2.33-9.43-4.5a10.17,10.17,0,0,1-3.67-8.18c-.87,1.1-3,4.9-4.9,3.54s.57-3.65,1.64-4.36a29.92,29.92,0,0,0-19,.49,38.55,38.55,0,0,0-14.67,10.43c4-1.05,7.48-2.88,11.67-3s8.22,1.34,12.22,2.79a29,29,0,0,0,5.93,1.51,24.24,24.24,0,0,0,3.07.22,4.11,4.11,0,0,1,1.4,0c.23.1,1.11.79,1.11,1.05,0,1.44-3.86,1.8-4.77,2A61.74,61.74,0,0,0,152,40.7c-3.77,1.49-7.43,3-11.54,3.21s-8.45-1-12.45-2.15-8-2.79-12.25-1.54c-.94.29-3.72,1.89-3.83-.12-.11-1.84,3.61-2.13,4.68-3,.35-.28.69-.14.49-.65a11.7,11.7,0,0,0-2.43-.5c-1.13-.21-2.26-.35-3.4-.46-2.11-.21-4.81-.84-6.88-.31s-3.64,2.26-5.08,3.65c-.85.83-1.68,1.68-2.51,2.53-.6.62-1.94,1.47-1.86,2.41,1.79-.92,3.54-2.09,5.61-2a10.67,10.67,0,0,1,5.31,1.1,5.59,5.59,0,0,1,2.63,3.92c.29,2-1.21,3.21-2.93,3.72a13.06,13.06,0,0,1-5.85.56c-2.08-.36-3.67-1.68-5.61-2.39C89.57,47,85.8,50.47,82.31,52.92c3.41,1.32,6.66,2.5,8.94,5.55,1.13,1.52,1.23,2.49-.17,3.79-1,.92-2.19,2.57-3.75,2-.77-.29-1.17-.89-2-1.08S83.79,63,83,62.79a8.56,8.56,0,0,1-4-2.19c-1-1-1.59-2.33-2.79-3.07a5,5,0,0,0-3.93-.31c-3.49.9-6.46,3.15-9.23,5.36a31.14,31.14,0,0,0-3.73,3.14c-1.15,1.28-1.63,3.19-2.77,4.38-.47.49-.17.47-.86.38-.14,0-.49,0-.58-.17-.22-.3-.07-.47,0-.83a9.88,9.88,0,0,1,2.36-4.41,41.74,41.74,0,0,1,7.19-6.4,42.85,42.85,0,0,1,10.15-5.3c3.14-1.22,6.58-2.16,9-4.58,1-1,1.89-2.21,1.49-3.72s-1.79-3-2.61-4.35c-1.9-3.24-1.08-6.14.51-9.35C84,30,84.55,29,86.16,28.68c1.31-.24,3.42-.07,4.32,1.06s.46,2.61.36,3.82c-.18,2.18-.33,4.37-.57,6.54a16,16,0,0,1-.52,3.08,13.67,13.67,0,0,0-1,2.46c-.11,1.25,1.17-.34,1.62-.75,1-.88,1.91-1.77,2.88-2.64,2.68-2.45,5.36-4.84,7.34-7.93,2.26-3.53-2.51-6.78-3.66-9.95a8.28,8.28,0,0,1,2.47-9.23,5.6,5.6,0,0,1,4.44-1.1c1.93.5,2.62,3,2.4,4.75-.26,2-1.72,3.72-2.53,5.54-.88,2-.92,4-1.21,6.12,2.26-1.66,4.19-4.7,5.5-7.17,1.46-2.75,1.43-6.14,2.2-9.1.63-2.43,2.11-5,4.84-5.27,2.37-.24,4.74,1,5.13,3.46A8.43,8.43,0,0,1,118,19.54a6.47,6.47,0,0,1-2.79,2.19,9.88,9.88,0,0,0-3.77,1.58,23.52,23.52,0,0,0-3,3.05c-.55.63-1.09,1.27-1.63,1.91s-1.23,1.58.22.86c2.47-1.22,4.68-2.67,7.56-1.92a7.53,7.53,0,0,1,5,4.74,3.72,3.72,0,0,1-.65,3.35,3.94,3.94,0,0,0-.43.75c.08.64.53.17.8.07a15.25,15.25,0,0,0,2.37-1.46c.91-.57,2.75-1.35,3-2.44.36-1.4-.72-3.31-.76-4.77a20.49,20.49,0,0,1,1.76-9.26c1.38-2.58,2.69-5.37,4.85-7.39a38.36,38.36,0,0,1,7.16-5.17c5.78-3.33,12.37-4.18,18.8-5.5,1-.2,3.58-.41,2.46,1.3-.81,1.23-3,2.1-4.22,2.92-3.18,2.16-6.41,4.27-9.48,6.59a44.6,44.6,0,0,0-7.08,6.58A74.86,74.86,0,0,0,132.62,25.94Zm39.95,7c3.39,1.11,6.35,2.06,9.55-.17,1.52-1.05,4.14-4.91.83-5.37-1-.14-2.93.08-3.41-1.17s1-1.79,1.86-1.73a6,6,0,0,0,4.21-1.15c1.13-.85,2.22-2.42,1.1-3.75A6.11,6.11,0,0,0,182.44,18c-1.12.06-4.42,2-5.28.78-2-2.89,8.12-2.78,5.52-5.52-2.33-2.47-5.69-3.26-8.57-1.42A11.72,11.72,0,0,0,170.63,15c-.3.44-1.15,1.75-.91,2.33s2.48,1.31,3,1.6c1.65.89,2.62,1.55,1.35,3.31-.76,1.06-1.94,1.93-.8,3.07s3,1.58,2.74,3.59C175.83,30.52,173.71,31.86,172.57,32.91Zm-26.86-27c-9.55,1.7-20,10.56-19.37,21,2.46-4.16,4.63-8.77,7.81-12.42S141.68,8.5,145.71,5.9ZM127.49,38.46c.73-1,3.34-.28,4.52-.07,1.41.25,2.75.65,4.18.78a22.29,22.29,0,0,0,9-1.3c-1-.71-2.65-.77-3.84-.91a55.71,55.71,0,0,0-6.59-.31,50.61,50.61,0,0,0-6.39.37c-1.17.16-3,.28-3.88,1.16,4.34,2.69,10.19,3.22,15.18,3.2,3.35,0,10,0,12-3.37a126,126,0,0,1-12.4,2.91,16.34,16.34,0,0,1-6.07-.37C131.24,40.1,128.89,39.86,127.49,38.46ZM77,55.5c.94,1,1.89,2,2.83,3a6.77,6.77,0,0,0,3.46,2.09c1.31.41,6.62,2.41,6-.89C89,58,86.21,56.57,84.73,56,82.35,55.09,79.52,55.5,77,55.5Zm34.72-34.94A8.19,8.19,0,0,0,117,17.71c1-1.33,1.89-3.89,1.24-5.51a2.46,2.46,0,0,0-2.47-1.47c-1.08.21-1.52,1.39-2,2.21A12.55,12.55,0,0,0,111.73,20.56ZM87.6,43c1.14-2.44.92-5.39,1.08-8.07.1-1.56,1-5.51-1.89-4.22-2,.87-2.61,3.9-2.43,5.82C84.58,39,86.14,41.11,87.6,43Zm7.26,3.54a12.31,12.31,0,0,0,6.48,2.1c1.44,0,4.62-.78,4.41-2.81s-3.44-2-4.83-1.78A16.66,16.66,0,0,0,94.86,46.56Zm5.9-20.35c.79-1.41,6-10.41,1.93-10.17-2,.12-3.06,2.22-3.5,4A7,7,0,0,0,100.76,26.21ZM172,21.32l-4.1-2.22a7.46,7.46,0,0,0,.35,2.21c.28.61.8,1,.55,1.71s-1.08.82-1.37,1.43a4.27,4.27,0,0,0,0,2.43,6.91,6.91,0,0,0,2.21,3.7c.16.15.73.76.91.76s.82-.73,1-.87l2.27-2c-1.12-.48-3.88-1.08-4.13-2.55S171.36,22.41,172,21.32ZM133,34.51l17.7,1.31C146.56,32.83,136.44,31.75,133,34.51Zm-26.25-1.68a69.37,69.37,0,0,0,7.35.45c1.79,0,3.65-.43,2.13-2.48C113.49,27.08,109.16,30.88,106.76,32.83Zm19.48-2.22.82.57c2.64-4,5-8.22,7.57-12.26a26.35,26.35,0,0,1,3.69-4.79,15,15,0,0,1,2.31-1.81c.3-.2,2.46-1.78,1.49-2-.35-.07-1.85,1.59-2.2,1.87-.77.61-1.63,1-2.43,1.58a16.19,16.19,0,0,0-4,4.77Q129.7,24.49,126.24,30.61Z" fill="#A9CF54" style="fill: rgb(169, 207, 84);"></path><path d="M239.73,268.29a38.06,38.06,0,0,1-12.6,7.47,72,72,0,0,1-7.36,2.13,66.85,66.85,0,0,0-7.45,2.44c1.28.7,2.76,1.71,2.55,3.38-.27,2.12-2.59.64-3.69.15,1,6.11-1.58,13.91-6.91,17.42a17.3,17.3,0,0,1-4,1.83c-1.35.46-2.39,1.65-3.9,1.56-1-.06-3.3-.6-3.72-1.68s.71-3.47,1-4.58c-3-.21-6.17.36-7.67-2.79a6.7,6.7,0,0,1-.81-4.14c.35-1.52,1.48-2.64,2.4-3.83-2.67-1-5.33-2.36-4.89-5.7a11,11,0,0,1,5.22-7.82c3.17-1.63,6.95-1.23,10.34-.63a30.27,30.27,0,0,1,5.47,1.67,9.75,9.75,0,0,1,4.14,3.28c.52-1.61.75-2.4,2.08-3.45a4.91,4.91,0,0,1,.93,3.25c4.09-1.51,8.22-2.65,12.4-3.9a33.75,33.75,0,0,0,11.18-5.26c2.9-2.26,5.29-5.51,7.42-8.49A34.3,34.3,0,0,0,247,249.68c-2.5,2.31-4.89,4.86-7.84,6.6a40.66,40.66,0,0,1-9.69,3.67c-3.64,1.05-7.31,2-10.92,3.21a21,21,0,0,0-4.81,2.29c-1.21.79-2,1.77-3.33,2.49-.33-1-.74-1.45-.37-2.54s1-2.42,1.44-3.62a57.16,57.16,0,0,1,3.27-7.06c2.53-4.46,6-7.22,10.44-9.63a21.08,21.08,0,0,1,3.52-1.69c1.23-.38,2.56-.46,3.82-.75,2.62-.6,5.23-1.23,7.89-1.69,1.27-.22,2.55-.41,3.82-.63s2.73-.26,3.7-1c1.22-.91.9-3.67,3.07-3.06s.83,3.83.5,5.41a15.59,15.59,0,0,0-.73,3.31c0,.88.85,2,1,2.95.43,2.39.59,4.83,1,7.23a24.91,24.91,0,0,1,.28,7.8,37,37,0,0,1-4.35,13.64c-2.35,4-5.84,7-8.71,10.57a9.4,9.4,0,0,0-2,3.18c-.24.81-.47,1.59-1.53,1.41-2-.35-.36-5.07-.14-6.32.55-3.08,1.08-6.15,1.62-9.23.25-1.49.52-3,.78-4.46C239,270.55,239.49,269.5,239.73,268.29Zm-32.38,23c-1.52,0-3.75.46-5.18-.18s-1.3-2-1.19-3.28c.09-.91.6-2.44-.06-3.25-.81-1-2.84-.88-3.92-1.37-3.66-1.68,2.83-8-2.26-8-2,0-4.24-.23-6.07.76a7.66,7.66,0,0,0-3.74,4.64c-1.3,5.26,5.49,3.48,7.81,1.49.45-.39.46-.58.93-.45.29.08.68.71.82.95a2.07,2.07,0,0,1,.1,2.17c-.93,1.57-3.7,2.14-5.1,3.31-1.22,1-2.5,2.5-2.35,4.19a2.92,2.92,0,0,0,1,2c1,.84,1.94.49,3.1.32a12.67,12.67,0,0,0,5.61-2c.59-.4,1.47-1.47,2.25-1.24s1.14,1.75,1,2.46c-.46,1.95-2.86,2.9-4,4.4-.35.48-1.33,2.13-.94,2.74s1.81-.14,2.47-.4a23.78,23.78,0,0,0,6.37-3.48A10.77,10.77,0,0,0,207.35,291.34Zm40-47.07a44.4,44.4,0,0,1-6.67,5.17,52.32,52.32,0,0,1-6.63,3.06c-2.13.86-4.25,2.07-6.51,2.3-1.22.13-2.32,1.25-3.27,2-1.14.88-2.26,1.78-3.4,2.66A55.64,55.64,0,0,0,236.65,255a23.8,23.8,0,0,0,5.91-4A30.16,30.16,0,0,0,247.36,244.27ZM215,260l.43.43A68.68,68.68,0,0,1,239.88,244c-5.29,1-10.61,2.15-15.38,4.77S217.67,255.55,215,260Zm-11.52,28.3c1.21-.13,3.72.12,4.68-.75s-.43-2.91-.79-3.84c-1-2.63-2.52-5.69-5.28-6.84a4.9,4.9,0,0,0-2-.45c-.83.06-.54-.05-.93.57a6.39,6.39,0,0,0-.43,1.45c-.37,1.26-1.48,3,.27,3.42,1,.23,2.11-.06,3.1.19a1.91,1.91,0,0,1,1.52,1.67C204,285.2,203.26,286.74,203.5,288.27Zm38.59-7.55a26.23,26.23,0,0,0,6.19-8.79c.58-1.33,3.67-9.4,2.27-10Zm7.47-29.62c-.64,2-1.43,4-1.9,6a2.83,2.83,0,0,0-.14,1.19c.09.41.57.51.64,1s-.46,1.09-.72,1.54a50.56,50.56,0,0,0-2.82,6.17c-.5,1.23-1,2.46-1.46,3.7-.29.8-1.15,2.5-1,3.32.17,1.23,1-1,1.18-1.36.48-1.08.95-2.17,1.43-3.25a62.41,62.41,0,0,1,2.89-6.2,23,23,0,0,0,2.05-5.94C250.23,255.11,250.81,253.11,249.56,251.1ZM225.35,254c.07.18.14.36.2.54,3.35-1.48,6.74-2.88,10-4.46a46.27,46.27,0,0,0,4.68-2.58l2.11-1.35c.25-.16.9-.42,1.06-.67.36-.58.08-.61-.56-.44a31.33,31.33,0,0,0-4.19,2c-1.5.67-3,1.33-4.5,2A50.79,50.79,0,0,0,225.35,254Zm14.48,25.18.24.22c.63-1.36,1.27-2.72,1.9-4.07-.31,0-1-.2-1.23-.07s-.32.58-.42,1.13C240.16,277.36,240,278.29,239.83,279.22Z" fill="#A9CF54" style="fill: rgb(169, 207, 84);"></path><path d="M36.67,215.18c.74-.1,2.84-.76,3.08.3s-2.31,1.71-3,2c2.8,3.73,6,7.32,8,11.55,2.08,4.41,3.85,9,5.8,13.43,1.85,4.23,3.92,8.32,7.17,11.67,1.55,1.6,3.36,2.9,5,4.39a23.06,23.06,0,0,0,5.91,4.23c-2.38-2.75-5.27-4.95-7.53-7.86a37.53,37.53,0,0,1-5.3-9.16c-1.45-3.68-1.45-7.43-2.3-11.24s-1.8-7.61-2.84-11.36a12.52,12.52,0,0,0-1-2.64c-.32-.59-1.13-1.35-1.07-2.05.16-1.85,2.09-.94,2.76-.08,2.13,2.75,5.21,4.45,8,6.4a27.59,27.59,0,0,1,11.21,15,64.94,64.94,0,0,1,2.6,13.07c.15,2.3.38,4.59.58,6.87A5.4,5.4,0,0,0,74,261c.18.49.46.43.67.86.42.88.14,1.31-.53,2.09l4.37,2.26c-.68.86,2.54,1.7,3,1.8,1.57.33,3.67.36,5,1.22.81.5,1.62,1.81.27,2.13s-3.45-.72-4.75-1.06a17.41,17.41,0,0,0-5-.94,28,28,0,0,0-5.31.85c-1.53.36-3.09,1.27-4.65,1.27a38.91,38.91,0,0,1-5.23-.81c-3.53-.5-7.31-.68-10.41-2.56-2.9-1.76-6.34-3.58-8.69-6.06-2.15-2.26-3.26-5.21-4.87-7.83a19.17,19.17,0,0,0-2.82-3.14c-.81-.84-.6-2.58.86-2.47.66,0,1.47.77,2,1.09.83.5,1.67,1,2.55,1.41,1.81.88,3.72,1.6,5.59,2.33s4,1.55,6.07,2.24c1.71.58,4.19,1.88,6,1.73a34.67,34.67,0,0,1-4.41-4.81c-1.29-2-2.54-4-3.69-6-2.35-4.21-3.86-8.79-6-13.12s-4.09-8.65-7.38-12.08c-.53-.55-1-1-1.86-.77s-1.1,1.17-2.1,1c-1.68-.25-.72-3.13-.51-4.19-2.16.32-4.21,1.22-6.44,1a11.12,11.12,0,0,1-5.64-2.56c-3.63-2.92-6.9-7.48-6.67-12.39.1-2,1.85-2.5,3.62-2.33.23,0,1.33.33,1.53.19s.3-1.26.39-1.53a9,9,0,0,1,.9-2.17c1.79-2.88,5.24-1.66,7.77-.55,1-2.52,2.47-5.3,5.61-5.35s4.83,3.4,5.87,5.85c1.22,2.87,2.69,6.31,2.46,9.5-.12,1.62-1.26,2.88-2.2,4.11C38.79,212,36.36,214.29,36.67,215.18Zm2.69-10.36c-.86-2.72-2.71-12.56-7.27-11.13-2.17.69-2.56,3.18-2,5.07.24.84.79,2,.31,2.84-.66,1.18-1.94.12-2.54-.61-1.35-1.64-2.76-4.16-5.33-3.18-2.75,1.05-1.16,4.32-.25,6.06.5.95,1.2,2.76-.4,2.6-1.2-.11-1.62-1.18-2.4-2s-1.45-1.7-2.56-1.59-.91.93-.92,1.84c0,2.24,1.87,4.94,3.21,6.67a13.36,13.36,0,0,0,6.24,4.48c0-1.78-.73-5.17.41-6.68s3.71-.15,5.07.27a23.36,23.36,0,0,0,.54-3.6,2.31,2.31,0,0,1,1.28-2.12c1-.44,1.95,0,2.9.26C36.88,204.29,38.12,204.53,39.36,204.82Zm29.7,54.87c1-.5-1.1-2.72-1.57-3.36-.83-1.12-1.71-2.21-2.46-3.38a35.67,35.67,0,0,1-3.66-8.14c-1.89-5.64-3.2-11.47-6.53-16.48-.49,1.23.28,3.15.51,4.39.31,1.66.63,3.33.92,5a33,33,0,0,0,2.32,8.56,61,61,0,0,0,4.48,7.21A25,25,0,0,0,69.06,259.69Zm.62,9.53c.09-1.88-5.06-2.13-6.38-2.39s-2.66-.62-4-1-2.4-1.13-3.67-1.56a20.44,20.44,0,0,1-6.6-3.09c-2.29-1.74-4.7-3.27-7.08-4.89,2.12,4.94,6.26,7.53,10.8,10C57.75,269.08,64.11,269.52,69.68,269.22ZM55.5,225c-.57.48.37,1.24.73,1.77l1.05,1.51c.83,1.18,1.68,2.33,2.57,3.46a81.36,81.36,0,0,1,5,6.66c1.37,2.18,2.3,4.6,3.51,6.87a21.72,21.72,0,0,1,1.66,3.6c.42,1.3.44,2.65.84,3.95.69-.8-.23-3.15-.42-4.1-.27-1.33-.56-2.67-.9-4a42.09,42.09,0,0,0-3-8.23C64.1,231.37,60,228.33,55.5,225Zm-27.61-9a16.68,16.68,0,0,0,7.69-3.7A14.15,14.15,0,0,0,38,209.29c.83-1.37.23-1.92-1.11-2.55-.82-.39-3-1.25-3.47-.41s-.09,2.27-.24,3.09a3.68,3.68,0,0,1-.86,2.09c-.67.57-1.22.26-2,0-.48-.17-2.11-1.14-2.59-1C26.76,210.67,27.79,215.18,27.89,216Zm41.88,40.1c-1.25-7.73-4.8-14.4-9.23-20.67C62.27,243,64.79,250.11,69.77,256.14Zm-6.14,8.61C58.9,261,53.86,258,47.54,257.29,52.18,261.77,58,263.13,63.63,264.75ZM70,259.61l-.48.39,1.4,1.58c.58.65.71,1.39,1.49.69Z" fill="#A9CF54" style="fill: rgb(169, 207, 84);"></path><path d="M105.35,291.4c3.15,4.51,1.37,12.84-5.28,11.74-2.56-.42-4.94-2.52-4.16-5.29a6.65,6.65,0,0,1,2-3.35c.64-.53,1.34-.94,2-1.49.89-.8,1.13-1.37-.36-1-1.8.41-3.6.87-5.42,1.23a22.74,22.74,0,0,0-5,1.09c-2.84,1.26-4.58,3.71-8,3.62-2.35-.05-5.72-1.33-6.68-3.68a4.81,4.81,0,0,1,2.18-5.68c3.65-2.22,7.91-.35,11.52.9,1.79.61,3.56,1.37,5.46.92a53.6,53.6,0,0,0,5.74-1.46c-2.52-.61-5-1.05-7.14-2.53-1.56-1.06-3.72-3.16-2.93-5.23.59-1.56,2.32-3.74,4.11-3.71,2,0,3.81,1.55,5,3.05s1.71,3.38,2.49,5.22c1,2.5,4,2.64,6.26,2.3a115.21,115.21,0,0,1,16.72-.72,61.33,61.33,0,0,1-9.75-5.78,33.16,33.16,0,0,1-3.79-3.41c-1.2-1.25-2.13-1.87-3.79-.91-2.78,1.62-5,4.44-8.27,2.26s-1.5-5.55,1.67-6.61c1.84-.62,3.39-.14,5.17.38.95.27,1.65.33.67-.68a21.05,21.05,0,0,0-2.33-2.09c-1.43-1.09-2.37-1.82-4.19-1.81a13.29,13.29,0,0,1-4.73-.66c-2.62-1-5.94-3.85-4.69-7a8,8,0,0,1,3.29-3.47c1.29-.68,3.25-.18,4.59.33a5.74,5.74,0,0,1,3.45,3.78,11.63,11.63,0,0,0,2.35,4.76c1.33,1.53,2.82,2.91,4.12,4.47s2,3.89,3.78,4.74c-.4-3.63-.54-10.42,4.26-11.42,2-.42,3.45,1.09,4,2.89s-.08,4.27-.91,6a12.29,12.29,0,0,1-1.57,2.51c-.76.94-1.53,1.42-1.3,2.74.36,2.06,2.45,3.39,4.11,4.34,4.42,2.55,9.43,3.75,14.33,5-2.22-3.15-5.55-8.62-2-12.15,3.34-3.37,7.63-.18,7.69,4a23.82,23.82,0,0,1-1.35,6.72c-.56,2-.06,2.63,2,2.89q4,.53,7.94.94c2.57.26,5.07,0,7.64.05s5.13.1,7.68.33c.81.08,6.24.74,5,2.67-.69,1-4.21-.36-5.17-.52-1.19-.21-2.4-.42-3.61-.55a10.41,10.41,0,0,0-3.42-.19c-.44.13-.87.64-1.37.8a5.51,5.51,0,0,1-1.46.18c-.83,0-1.66-.14-2.5-.11-1.82,0-4.49.69-5.79,2.06-.32.34-1.44,1.69-1.33,2.18s1.86,1.51,2.22,1.92a10.55,10.55,0,0,1,2.48,4.69c.61,3-.63,8.2-4.69,7.08-2.18-.61-3.62-3.32-4-5.41-.4-2.49.42-5.24.92-7.68-1.5.93-3.39,1.25-4.38,2.86s-2.11,3.28-1.71,5.41a9,9,0,0,1-.24,5.71,5,5,0,0,1-3.57,3.16,5.63,5.63,0,0,1-5.41-.87c-2-1.64-1.72-3.1-.41-5.07.64-1,1.32-1.93,2-2.88a3.17,3.17,0,0,1,2.21-1.64,3.66,3.66,0,0,0,2.06-1.37,13.12,13.12,0,0,0,1.24-2c-3.55.95-8.93,2.78-11.63-.86-2.34-3.16-.05-6.81,3.26-8a4.2,4.2,0,0,1,5,1.1c1.22,1.26,2.61,3.7,4.25,4.39s4.35-.71,5.82-1.51a62.48,62.48,0,0,0,5.56-3.71c-3.07-.55-6.15-1-9.21-1.6a36.83,36.83,0,0,0-8.88-.94c-6.07.24-12.28-.19-18.32.64a12.46,12.46,0,0,0-4.27,1,13.76,13.76,0,0,0-2.93,2.51c-1,1-1.89,1.95-2.81,2.94s-1.45,1.78-.36,2.89a3.26,3.26,0,0,0,4.56-.28c.76-.91.73-2.27.89-3.39A19.13,19.13,0,0,1,105.35,291.4Zm-18.12.23c-2.29-.49-4.4-2-6.81-1.87-1.49.05-5.16,1.34-4,3.38C78.93,297.29,85.07,294.39,87.23,291.63ZM91.54,262c1.84,3,5.14,5.09,8.75,4-.73-2.09-1.2-4.56-3.31-5.72C94.6,258.94,93.13,260.25,91.54,262Zm40.68,36.53c-1.49-1.15-3.2-3.07-5-3.71a4.09,4.09,0,0,0-4.28,1.48c-1.22,1.9,1.09,2.79,2.57,3.12A9.49,9.49,0,0,0,132.22,298.5Zm3.91-12.75c1.25-1.85,2.87-7.62.15-8.92a1.91,1.91,0,0,0-2.37.7c-.63.76-.42,1.66-.35,2.6C133.73,282.3,134.27,284.41,136.13,285.75Zm-9.7,25.1c1.32,1,3.31,2,4.91,1,1.36-.84,1.5-2.84,1.34-4.27a6.3,6.3,0,0,0-.21-1.15c-.21-.74-.11-.73-.79-.73a4.51,4.51,0,0,0-2.24,1.05A10.71,10.71,0,0,0,126.43,310.85ZM114,275.59c2.2.15,5.68-7.84,2.7-8.83-1.73-.57-2.77,1.9-2.94,3.14A21.72,21.72,0,0,0,114,275.59ZM98.39,286c.28-2.2-3.14-7-5.67-5.64-1.86,1-.53,2.67.57,3.51A9.15,9.15,0,0,0,98.39,286Zm45.21,12.67a8.87,8.87,0,0,0-.87,5.31c.18,1.24.77,3.35,2,4,1.55.79,1.88-2.36,1.56-3.34A57.75,57.75,0,0,0,143.6,298.64Zm-38.77-22.9c-.17-.93-.92-.75-1.79-.87a6.86,6.86,0,0,0-2.21-.12c-.81.17-2.16,1-1.89,2A2.42,2.42,0,0,0,101,278C102.3,277.82,103.78,276.39,104.83,275.74Z" fill="#A9CF54" style="fill: rgb(169, 207, 84);"></path><path d="M274.07,115.76a2.65,2.65,0,0,1-2.86-.75,14.51,14.51,0,0,0-3.67-2.19c-2.84-1.19-5.7-2.14-8.07-4.2A30.8,30.8,0,0,1,250,93.24c-1.44-5.52-1.65-10.93-6.13-15-.93-.86-2-1.48-3-2.25a15,15,0,0,1-3-3.54c-.57-.79-1-1.61-.05-2.41,1.17-1,1.8,1.27,2.34,2,3.36,4.74,9.18,8.23,15.06,7.8,3.11-.23,5.95-1.49,9-2.12a25.4,25.4,0,0,1,9.94-.18,29.12,29.12,0,0,1,8.71,3.27,34.46,34.46,0,0,1,7.43,5.09,18.54,18.54,0,0,1,4.12,6.31c.49,1.22,2.77,6.61-.1,6.48C293,98.61,291,97,290,96.29a52,52,0,0,1-4.22-3.15A57.77,57.77,0,0,0,277.22,87c-5.93-3.27-13.6-7.32-20.49-4.51,3.07,1.22,6.33,1.85,9.32,3.28a27,27,0,0,1,7.69,5.59c4.9,5,7.15,11.76,9.46,18.23a11.1,11.1,0,0,1,1.11-1.68c.43-.46.63-.67,1.1-.32.85.66.11,2.83,0,3.68,4.29.55,7.95,1.59,11,4.86,2.3,2.48,5.05,6.67,3.88,10.21a6,6,0,0,1-3.61,3.55,8,8,0,0,0-1.32.29c-.21.18-.3.88-.41,1.17a8.52,8.52,0,0,1-.91,1.87c-1.77,2.49-5.22.38-7.27-.62-.56,1.35-.94,3.22-2.28,4s-2.75.25-4-.35a11.34,11.34,0,0,1-5.5-6.1c-.58-1.41-1.57-2.72-1.67-4.25a20.5,20.5,0,0,1,.34-5.36,12.83,12.83,0,0,1,2-5c.91-1.26,2.55-2,3.84-2.86-1.32-.65-4.56-1.61-3.12-3.65,1.28-1.81,3.48,1.16,4.73,1.8-1.56-6.51-4.11-12.93-8.74-17.89s-11-6.6-17.16-8.43c5,3.64,11,7.34,14.2,12.82a32,32,0,0,1,3.51,8.89c.37,1.62.53,3.27,1,4.87a10.58,10.58,0,0,1,.62,2.35A8.25,8.25,0,0,1,274.07,115.76Zm.14-33-.53-.84c2.25-.13,4.27.7,6.34,1.41-3.49-2.28-7.68-2.68-11.71-3.16a21,21,0,0,0,3.25,1.72,12,12,0,0,0,1.75.59,3.72,3.72,0,0,1,1.23.67c1.8,1.19,3.87,2,5.73,3.18,4,2.48,6.85,6.54,11.06,8.77,1,.53,2.11,1.5,1.77-.11-.26-1.19-.77-1.23-1.71-1.71a8.16,8.16,0,0,1-1.95-1.71,19.26,19.26,0,0,0-2.35-1.77,59.49,59.49,0,0,0-5.5-3.71C279.25,84.76,276.66,83.8,274.21,82.72Zm2,40.76c-1,3.52,1.1,8.6,4.18,10.61,1.67,1.09,3.22,1.08,3.1-1.13-.07-1.25-.26-2.49-.36-3.74,0-.42-.27-1.68.12-2,.66-.56,2.08.14,2.49.68s.73,1.59,1.22,2.3a5.75,5.75,0,0,0,4.12,2.55c2.17.23,2.36-1.62,2.14-3.41a9.08,9.08,0,0,0-1-3,3.89,3.89,0,0,1-.52-3c1,.25,1.45.12,2.05.92a7,7,0,0,1,.82,1.33c.23.51.1,1.13.28,1.57.75,1.88,2.91.48,2.91-1.08a8.4,8.4,0,0,0-1.24-3.14,26.46,26.46,0,0,0-1.9-3.16c-1.17-1.74-2.48-3.38-4.66-3.78,0,2.07.49,4-2.13,4.15-1.38.07-2.69-.49-3.45.92-.85,1.57-.39,3.74-2.44,4.36S277.77,124.89,276.22,123.48Zm-22-26.33c4.4,7.7,8,11.44,15.88,13.7C269.12,107.52,257.93,99.44,254.24,97.15Zm-1.78-8.57c-.63.68,1.22,3.44,1.66,4.23a12,12,0,0,0,3,3.67c3,2.48,6.16,4.78,9.25,7.16C263.66,97,257.93,92.81,252.46,88.58Zm34.84,28.69c-.45-1.54-.31-3.24-2.45-2.91-.93.14-1.36.91-2.2,1.16a19.41,19.41,0,0,0-2.22.45,6.31,6.31,0,0,0-3.49,3.46c-.62,2,2.24,2.86,3.6,3.7.22-1.64.34-3.61,1.38-5C283.21,116.43,285.48,116.72,287.3,117.27Zm-16.61-9.18c.86-.38.24-1.07,0-1.84-.17-.54-.34-1.08-.5-1.62a25.74,25.74,0,0,0-1.39-3.6,18.1,18.1,0,0,0-4.41-5.92c-3.94-3.35-7.41-7.19-12.11-9.57,1.37,2.11,4,3.6,5.88,5.16a38.34,38.34,0,0,1,5.38,5.12C266.57,99.53,268.28,104,270.69,108.09Z" fill="#A9CF54" style="fill: rgb(169, 207, 84);"></path><path d="M51.11,61.4C50.35,70.49,47,79,42.46,86.8c3.93-2.81,8.1-5.28,12.14-7.92,3.16-2.06,6.23-4.38,8.16-7.69.9-1.54,1.23-3.33,2.16-4.83,1.57-2.55,1.84,3.25,1.89,4.09a50.18,50.18,0,0,1-.72,13.68c-.87,3.91-3.21,5.9-6.71,7.62A76.18,76.18,0,0,1,46.62,96.6c-4.1,1.16-8.31,2-12.2,3.82-3.69,1.67-5.33,4.06-6.58,7.83a27,27,0,0,0-1.56,7.1c-.06,1.08.81,4.42-1,4.38-2.41,0-1-4.07-.75-5.3s.51-2.51.7-3.78a10,10,0,0,0,.14-1.73c0-.85.07-1.09-.74-1.27q2.2-3.27,4.42-6.53c1.3-1.9,3.23-3.69,2.59-6.13-1.28-4.92-2.56-9.64-2.49-14.78.07-5,1.67-9.68,2.95-14.45.67-2.52,1.29-5.05,1.92-7.58.31-1.27.59-2.55.95-3.81a5.26,5.26,0,0,1,2-2.68,7.25,7.25,0,0,1,1.64,3.66c.3,1.68.55,3.37.86,5,.62,3.26,1.5,6.47,2.22,9.71a21.83,21.83,0,0,1,.54,9.2c-.58,2.91-2,5.55-3.27,8.24,2.3-2,3.76-5.07,5-7.75a71.53,71.53,0,0,0,4-10.59A36.74,36.74,0,0,0,49,65c.1-.58.52-2.24.09-2.79-.63-.84-4,2.66-5,.57C43,60.48,47,60.32,48.19,60c-2.69-2.19-4.9-4.15-6.26-7.44a20.15,20.15,0,0,1-1.66-9.89c.3-2.43,1.4-7.42,4.94-6.07C46.2,37,47,38.79,48,38.3c.49-.22.9-1.24,1.26-1.68a7.07,7.07,0,0,1,1.57-1.47,5.17,5.17,0,0,1,7.45,1.54,6,6,0,0,1,.61,1.85c.24,1.21.32,1,1.57,1a5,5,0,0,1,4.17,1.31c1.94,2,1.92,5.53,1.49,8a15.57,15.57,0,0,1-4.54,8.22,15.39,15.39,0,0,1-4.53,3.16c-1.26.57-3.47.72-2.31,2.46.42.61.94,1.06.58,1.84-.23.51-1.06,1.1-1.62.89S53,64,52.8,63.52A4.91,4.91,0,0,0,51.11,61.4Zm-6-9.7c1-1.17,2.2-3.3,3.94-3.46a2.82,2.82,0,0,1,2.28,1.17c.46.51.82,1.45,1.61,1.53,1.67.17,2.7-2.35,4.53-1.35a8.2,8.2,0,0,1,1.87,2c.77.92,1.55,1.83,2.33,2.74a12.43,12.43,0,0,0,3-5.11c.42-1.72.71-4.32,0-6-.48-1.16-2.19-2.18-3.39-1.49-.73.41-1,1.35-1.54,1.93a3.45,3.45,0,0,1-.84.62c-.65.36-.57.37-1,0-1.48-1.38-.29-4.41-1-6.14-.64-1.58-2.73-1.84-4.16-1.29-3.66,1.4-3.39,6.5-4.32,9.62-1-.53-1.51-.7-1.81-1.86s.21-2.51.22-3.78-1.92-3.13-2.63-1.38a7.85,7.85,0,0,0-.07,2.69c0,1.14-.36,2.2-.38,3.34A15.77,15.77,0,0,0,45.1,51.7ZM62.77,76c-.67-.54-.88,0-1.5.45s-1.11.81-1.66,1.23c-1.19.9-2.36,1.81-3.56,2.68-2.26,1.62-4.73,2.89-7,4.41a80.73,80.73,0,0,0-6.68,5c-2.2,1.8-4.68,3.6-6.33,5.92C41.25,93,46.3,90,51.39,87.06a37.46,37.46,0,0,0,6.25-4.26C59.81,80.85,61.17,78.41,62.77,76Zm-27,12.94c5.06-7.36,3.09-16.53,1.82-24.72-.06-.4.06-1.11-.57-.85-.2.08-.34,1.39-.38,1.58-.25,1.16-.44,2.32-.6,3.49a62.81,62.81,0,0,0-.44,6.71C35.48,79.75,35.76,84.34,35.73,88.94Zm20.71-37.3c-.79.82-1.54,2-2.76,2.14s-1.9-.67-2.71-1.48c-.62-.63-1-1.07-1.88-.71s-2.26,1.69-2.32,2.46c-.14,2,3.95,3.56,5.42,3.92,2.89.73,5.06-.25,7.44-1.81A39.58,39.58,0,0,0,56.44,51.64Zm1,33.49L39.47,96A22.41,22.41,0,0,0,57.45,85.13Zm-2.84,6.34a11.87,11.87,0,0,0,9.45-13.42C62.85,83.88,57.65,86.86,54.61,91.47Zm-21-19.63c-1.07,0-1.54,4-1.69,5a29.7,29.7,0,0,0-.28,5.58,47.87,47.87,0,0,0,2,11.13Z" fill="#A9CF54" style="fill: rgb(169, 207, 84);"></path><path d="M272.16,210c1.86,2.92,4.25,5.65,5,9.1.59,2.53-.08,6.81-3.2,7.4-2.85.53-4.87-3.28-5.4-5.56a9.9,9.9,0,0,1,0-4.4c.19-.85.46-1.68.68-2.53.28-1.06.23-1.86-.73-.62-2,2.55-4.66,5.19-5.9,8.21-.69,1.69-.24,3.06-.29,4.79a9.11,9.11,0,0,1-1.14,4.23c-1.4,2.52-4.39,4.81-7.27,3.16-2.55-1.46-2.55-4.72-1.28-7.08,1.54-2.88,4.91-4.32,7.06-6.67q4.08-4.47,8.11-9c-3.07.55-8.59,2.44-11.29.09a6.73,6.73,0,0,1-1.19-1.88c-.21-.35-.7-.66-.81-1s.09-.56.4-1a9.33,9.33,0,0,1,4-3.24c3.67-1.39,7.78.41,11.55.53,2.13.06,3.15-1.08,4.47-2.65a18.17,18.17,0,0,0,3.12-5.19c-2.43.23-4.41.5-6.81-.14-1.69-.45-4-.8-5.23-2.21a2.93,2.93,0,0,1,.11-4.14c1.52-1.55,3.72-1.61,5.72-1.26,3.17.56,8.79,2.5,10.54-1.32,1.86-4.08,2.43-8.27,3-12.65-3.63,2.76-7.59,7.31-12.58,5-2.14-1-3.41-3.18-2.43-5.49s3.44-2.07,5.42-2.39c1.33-.22,2.66-.52,4-.7a10.15,10.15,0,0,1,1.82-.14c.38,0,.74.24,1.09.27,1.13.1,1.1-1.11,1.45-2.05a6.9,6.9,0,0,0,.86-2.75c-.13-2.82-1.15-5.75-1.64-8.53-.27-1.48-.52-3-.72-4.44s0-1.54.93-2.62a4.2,4.2,0,0,1,1.05,2.53c.12,1.32.17,2.65.35,4a52.65,52.65,0,0,0,1.89,7.49,32.41,32.41,0,0,1,1.51,7.55,76.44,76.44,0,0,0,1.07,8c.07.41,0,1.3.34,1.62s.69.14,1.3,0a13.55,13.55,0,0,1,3.58-.48c2,0,4.69.61,6.06,2.2a6.58,6.58,0,0,1-1.32,9.38c-2.4,1.56-4.49-.7-6.33-2.07a10.64,10.64,0,0,1-2.63-2.51,13.14,13.14,0,0,0-2-2.71c-.23,5-2.09,10.14-1,15.16.23,1,.4.86,1.41.81l1.81-.12a19,19,0,0,1,3.62,0,11.59,11.59,0,0,1,6.3,3c1.37,1.42.66,3.73-.13,5.28-1,2-2.15,3.52-4.51,3.28a10.11,10.11,0,0,1-5.53-2.51,10.77,10.77,0,0,1-1.91-2.19c-.52-.78-.72-2-1.76-2.13.49,2.64.57,5.77,1.65,8.25.92,2.13,3.05,3.64,4.38,5.49,2.28,3.18,3.41,9.86-1.81,10.77-3.52.62-7.27-2.46-6.18-6a31.4,31.4,0,0,0,1-3.27c.25-1.29.91-2.52,1-3.83.26-2.59-.75-5.64-1.47-8.1-3,2.38-6.22,5.46-10.09,2.64a2.86,2.86,0,0,1-.93-4c1-1.55,3.42-1.87,4.9-2.88a25,25,0,0,0,4.44-4c1.49-1.64,1.47-3.69,1.75-5.82.68-5.07,1.81-10.36,1.55-15.48C284.13,191.15,278.65,201,272.16,210Zm16.38-5c1,2,2,3.92,3.93,5.2,1.38.91,4.5,2,5.41,0s.8-3.88-1.41-4.79C293.84,204.3,291.28,204.81,288.54,205Zm2.06-20.26a8.11,8.11,0,0,0,3.21,4.57c1.23.89,4.19,3.52,5.26,1,.69-1.6.72-3.82-.78-5C296.49,184,292.71,184.77,290.6,184.77Zm-2,35.24c-.22,1.25-.36,2.52-.66,3.76a9.57,9.57,0,0,0-.55,2.41,4,4,0,0,0,2.47,2.9c1.88.58,2.06-3.17,2.05-4.39A5.17,5.17,0,0,0,288.6,220ZM269,207c-1.89-.55-4-1.46-6-1.43-1.58,0-3.84.9-4.49,2.49-1,2.4,3,1.31,4,1.11A23.59,23.59,0,0,0,269,207Zm4.16,17.36c1.71-2.64.72-8.11-1.73-10C269.68,218.92,269.92,222.85,273.2,224.38Zm-13.42-.08a10.34,10.34,0,0,0-4.19,3.07c-.62.88-1.74,3.26-.68,4.22,1.35,1.22,3.38-.85,4-1.87A7.42,7.42,0,0,0,259.78,224.3Zm22.51-50.72c-2.16.42-4.34.79-6.49,1.27-1.44.31-4,1.13-2.2,2.85C276.38,180.32,280.81,175.79,282.29,173.58Zm-4.13,18.67c-2.09-.33-4.29-1-6.42-.78-1.67.16-4.23,1-1.52,2.19C273.47,195.06,275.65,194.88,278.16,192.25Zm5.29,12.34c-1.5,1.22-3,2.42-4.5,3.66a4.93,4.93,0,0,0-1.58,1.7c-.41.9.19,1.17,1.12,1.32,1.44.24,2.56-1.41,3.41-2.4A5.15,5.15,0,0,0,283.45,204.59Z" fill="#A9CF54" style="fill: rgb(169, 207, 84);"></path><path d="M17.35,167.39c-.66,3.56-5.51,7.72-9.26,6.36-5.22-1.89-1.83-7.55,1.54-9.33a8.44,8.44,0,0,1,2.57-.89c.72-.13,2.43.18,2.85-.23.9-.89-.44-4.18-.85-5.07-.18-.39-.88-2-1.42-2s-1.7,1.55-2.1,1.84a8.86,8.86,0,0,1-6.09,1.46c-4.95-.59-6.09-5.78-2.47-8.9a5,5,0,0,1,5.21-1A10.44,10.44,0,0,1,9.81,151c.39.29,1.18,1.21,1.62.91s-.41-1.61-.66-2.14c-.56-1.23-1.12-2.46-1.69-3.69s-1.37-1.67-2.56-2.47c-1.82-1.21-4-2.2-4.78-4.39-1.22-3.52.9-8,5.06-7.82a4.29,4.29,0,0,1,3.91,3.4c.78,2.83-.82,5.52-.26,8.3.58,3,2.11,5.94,3.24,8.74a63.89,63.89,0,0,0,4.17,8.91c.54-3.16.87-6.37,1.71-9.46.8-2.9,2.1-5.65,3.18-8.44.3-.77.91-1.88.35-2.67s-2.43-1-3.31-1.39a11.12,11.12,0,0,1-4.86-4.54c-1.41-2.88,0-8.87,3.88-8.78a5.32,5.32,0,0,1,4.67,3.15,22.72,22.72,0,0,1,.72,3.85c.31,1.7.66,3.39,1,5.08,1.62-2.4,3.29-4.74,5-7.06s3.6-4.55,4.38-7.27c.41-1.48,0-2.12-.52-3.49a21.87,21.87,0,0,1-.95-3.66,7.12,7.12,0,0,1,2.31-6.53c1.36-1,4.41-.58,5.91-.07,2.59.88,3.15,3.19,2.07,5.44a12.14,12.14,0,0,1-1.71,2.82c-.77.88-1.82,1.15-2.64,1.89s-1,2.18-1.41,3.07c-.53,1.33-1,2.67-1.56,4,2.36,0,7.83-.1,8.4,3,.67,3.66-4.53,5.12-7.24,5.1-1.93,0-3.6-.66-5.58-.39s-2.61,1.12-3.5,2.82c-1,1.89-1.94,3.82-2.88,5.74s-2.06,3.63-2.26,5.68c1.29-.83,2.3-1.87,3.85-2.16a9.33,9.33,0,0,1,4.48.35c2.38.73,6,2.56,4.75,5.62-.79,2-3.88,4-5.94,3.26a29.25,29.25,0,0,1-4.41-2.2c-.92-.53-2.11-2-3.19-1.19s-1.11,2.53-1.31,3.64c-.34,1.84-.65,3.69-.94,5.53-.53,3.46.06,6.85.38,10.29a55.4,55.4,0,0,1,.14,10.46,13.65,13.65,0,0,1-.82,4.45c-.4.85-1.35,1.86-2,.56-.47-1,.2-2.92.38-3.86A26.22,26.22,0,0,0,19,178c0-1.92-.26-3.83-.48-5.74C18.45,171.4,18.26,167.36,17.35,167.39Zm2.24-39.94c-1.23.5-2,.46-2.24,1.92a8.53,8.53,0,0,0,.13,3.45,5.8,5.8,0,0,0,3.78,4c.7.24,1.62.63,2-.13s-.48-3-.62-3.73C22.26,130.77,22.38,127.85,19.59,127.45Zm-8.51,26.46c-1.77-1.2-3.89-3.32-6.21-2.77a3.36,3.36,0,0,0-2.48,4.27C3.73,159.27,9.74,156.15,11.08,153.91Zm-3-11.66c.63-2.19,1.3-4.5.71-6.79-.53-2.09-1.84-2.89-3.67-1.53a3.71,3.71,0,0,0-1.29,4.55C4.62,140.33,6.46,141.24,8.08,142.25Zm27.78-22.59c1.52-1.27,3.4-2.13,4.33-4,.78-1.52,1.56-3.79-.55-4.57a3.47,3.47,0,0,0-4,1.57C34.43,114.8,35.32,117.51,35.86,119.66ZM24.92,151.09c1.17.65,2.33,1.33,3.51,2,.87.47,1.86,1.21,2.9,1,1.55-.29,3.1-3.13,1.8-4.42-.83-.84-3.2-1-4.28-1A3.94,3.94,0,0,0,24.92,151.09Zm6.67-18.68c.33.71,2.43.19,3.21.28,1.24.15,2.18.59,3.45.32s4.81-1.7,3.17-3.54c-1.11-1.25-4.22-.93-5.62-.28C34.18,130,33.15,131.55,31.59,132.41Zm-24.13,38c.63.62.81,1.31,1.77,1.3a4.94,4.94,0,0,0,2.53-1.21c1.11-.85,3.1-2.8,2.83-4.39-.33-1.87-2.8-.7-3.75-.12C9.32,166.91,7.68,168.53,7.46,170.39Z" fill="#A9CF54" style="fill: rgb(169, 207, 84);"></path><path d="M189.92,39.77c.6-1.21,1.39-1.28,2.58-1,1.43.39,2.84.78,4.27,1.12a31.6,31.6,0,0,0,4.29,1.14c1.56.15,3.06-.51,4.57-.74-1-4-1.46-7.92.57-11.72,1.09-2,2.75-2.51,4.87-3.14,1.27-.37,3.57-1.16,4.8-.26,1,.75.54,2,.37,3-.28,1.72.51,3.39.1,5.13-.92,3.9-6.15,5.23-7.65,8.76,3.9.81,9.61,3.38,12.66-.45,1.25-1.58,1.72-3.51,3.3-4.87s3.79-1.86,5.94-2.39c1.76-.43,4.12-1,5.21.89,1.27,2.25-.28,4-1.71,5.63a7.91,7.91,0,0,1-5,3c-2.59.37-5.06.55-7.62,1.16l12.53,6c.73.35.67.27,1.33,0a9,9,0,0,0,1.59-1c1-.64,2.06-1.27,3.1-1.89a8.69,8.69,0,0,1,5.66-1.4c1.75.1,4.17,0,4.89,2a5.54,5.54,0,0,1-.59,4.49c-1.09,1.56-3.5,1.63-5.22,1.75a26.7,26.7,0,0,1-6.61-.55c1.91,1.9,3.64,4.1,6.07,5.36,2.18,1.12,4.5,1.41,6.45,3,3.37,2.81,5.23,9.48-.7,10.46a6.8,6.8,0,0,1-5.93-1.63c-2-2.06-1.52-4.42-1.42-7s-2.87-5.38-4.69-7.26a24.13,24.13,0,0,0-7.51-5c1,2,2.51,3.46,3.22,5.61.58,1.74,1.13,4.27.53,6.08s-2.37,1.82-4,1.84c-.87,0-1.89.2-2.56-.5a6.7,6.7,0,0,1-1-2.78,22.23,22.23,0,0,1-.88-7.3c.13-2,.42-3.86-1.07-5.51s-3.73-2.45-5.78-3.09a36.15,36.15,0,0,0-7.1-2c1.41,2.21,3.36,4.17,4.67,6.41a5.75,5.75,0,0,1,.08,4.67c-.54,1.54-1.44,2.93-3.14,2.11s-3.25-1.39-4.15-2.95c-1.16-2-.8-4.85-1-7.06s-1.68-3.37-3.73-4.29C199.92,41.73,194.63,41.6,189.92,39.77Zm55.34,23.3c-.47,2-1.28,4.61.08,6.43a5.14,5.14,0,0,0,4.82,1.86C256.15,70.38,246.93,64.13,245.26,63.07ZM213.73,27.53c-1.22.43-2.48.78-3.68,1.27s-1.36,1-1.77,2.12a12,12,0,0,0-.24,7.41,15.59,15.59,0,0,0,3.32-4.63Zm24.89,25.08c2,.43,10.25,2.46,10.12-1.37-.06-1.81-3.1-1.49-4.32-1.4C242,50,240.6,51.34,238.62,52.61Zm-14-11c4.84.3,8.56-1.4,9.38-4.24C231.18,36,225.69,38.42,224.66,41.59Zm3.8,13c-.13,1.46-.17,10.74,2.93,9.15S230.16,55.81,228.46,54.64Zm-17-5.42a6.91,6.91,0,0,0,0,4.15c.36.88,1.5,2.22,2.6,2.09C217.09,55.1,212,49.87,211.42,49.22Z" fill="#A9CF54" style="fill: rgb(169, 207, 84);"></path><path d="M36.31,165.35c1.77.23,4.81,0,6,1.63s-.22,3.44-1.38,4.54a7.68,7.68,0,0,1-5.25,2,23.63,23.63,0,0,0-3.9.7c-.84.19-2.17.76-3.05.52-2.33-.65-1.45-3.89-.94-5.36.78-2.25,1.55-4.92,3-6.86.81-1.11,3.52-3.67,5-3.06C38.09,160.37,36.71,163.75,36.31,165.35Zm-4.91,6.14c1-.07,2.09-.27,3.14-.24a7.55,7.55,0,0,0,2.37-.12c.93-.27,4.19-2,3.33-3.3s-3.74-.49-4.76.07A18.82,18.82,0,0,0,31.4,171.49Zm3.39-10c-2.17.85-5.53,4.63-5,7.18C32.05,167,35.55,164.91,34.79,161.48Z" fill="#A9CF54" style="fill: rgb(169, 207, 84);"></path><path d="M186.43,51.17c-.45,1.23-.64,3.28-2.22,3.48s-3.76-1.13-4.64-2.33c-1.23-1.69-1-4-1.15-5.94s-1.19-4.12,1.22-4.74c.24,1.43.5,2.87.71,4.31a19.8,19.8,0,0,0,.56,3.79c.34.93,2.21,3.24,3.27,2.06,2-2.16-6.73-10.54-1.51-10.67,1.87-.05,4.27,1.23,5.8,2.19A16.86,16.86,0,0,1,193,47.47c1.38,1.82,1.91,3.88-.34,5.34S188.28,52.51,186.43,51.17Zm-1.6-7.45c-.53.78.6,1.89,1.08,2.65S187,48.16,187.68,49s2.91,3.19,4.2,2.13C194.62,48.88,186.14,44.44,184.83,43.72Z" fill="#A9CF54" style="fill: rgb(169, 207, 84);"></path><path d="M270.46,243.69c0,2.26.76,6.26-1.26,7.94-1.75,1.44-3.9-1.59-4.63-3-1.21-2.36-.52-4.59-.17-7.06a14.61,14.61,0,0,0,.34-3.54c-.1-.86-.58-1.49.28-2.12,1.28-.93,4.28-.38,5.68,0a8.81,8.81,0,0,1,4.67,3.34c1.05,1.48,2.2,4.07.64,5.67S271.85,244.72,270.46,243.69Zm3.65.19c1.16-1.67-.49-3.43-1.8-4.44A7.58,7.58,0,0,0,267,238a3.88,3.88,0,0,0,.46,1.55,10.32,10.32,0,0,0,2.24,1.5C271.19,242,272.65,243,274.11,243.88Zm-7.85-2a16.25,16.25,0,0,0-.37,4.5c.09.75.94,3.7,2,3.16.86-.44.35-2.95.26-3.65A6.68,6.68,0,0,0,266.26,241.87Z" fill="#A9CF54" style="fill: rgb(169, 207, 84);"></path><path d="M265.58,64.29c1.22.75,4.07,2.29,2.79,4-1.17,1.61-3.35,1.45-5.11,1.09a9.07,9.07,0,0,1-5.1-3.21A4.2,4.2,0,0,0,256,64.88c-.77-.27-1.42-.62-1-1.55s1.82-1.14,2.62-1.47a22.55,22.55,0,0,0,3-1.69,16.27,16.27,0,0,1,6.51-2.69c1.82-.21,3.93.08,3.31,2.51C269.93,61.81,267.08,63.37,265.58,64.29Zm-3.74-2.17c2.25,0,4.21,0,5.72-1.91A7.25,7.25,0,0,0,261.84,62.12Zm-.46,3.11c-.79,2,3.21,2.33,4.42,1.82Z" fill="#A9CF54" style="fill: rgb(169, 207, 84);"></path><path d="M293.17,156a11.69,11.69,0,0,1,11.1-.35c1.2.6,2.17,1.52,1.77,3s-2.55,2-3.83,2.64c2.21,1.15,3.17,4.84,1.61,6.85-2.38,3.06-5.33,0-7.1-2a35.71,35.71,0,0,1-5.13-8.05c-.39-.81-.75-1.62-1.13-2.44-.21-.45-.4-.59-.15-.95a1.42,1.42,0,0,1,.93-.43C292.25,154.21,292.59,155.35,293.17,156Zm2.66,4.91c-.18.79.79,1.55,1.27,2.15.71.91,1.42,1.81,2.15,2.7s2.48,3.7,3.45,1.4C304.34,163.29,298.16,161.87,295.83,160.89Zm-2.2-3.62a9.41,9.41,0,0,0,5.27,2.19c1.37.22,3.34.72,4.48-.4,1-.93.36-1.35-.64-1.81a7.09,7.09,0,0,0-2.8-.62C297.82,156.56,295.75,157.18,293.63,157.27Z" fill="#A9CF54" style="fill: rgb(169, 207, 84);"></path><path d="M156.6,273.81c.26-1.6.54-3.94,2.46-4.39,1.74-.41,3.09,1.16,3.7,2.57.94,2.19,1.46,4.47.43,6.72a22.26,22.26,0,0,0-1.36,2.72c-.24.76-.13,2.26-.94,2.71-1.72,1-3.29-1.71-4.34-2.58a43,43,0,0,1-4.79-4.46c-1.14-1.26-3.1-3.36-.7-4.56C153.19,271.46,154.87,272.75,156.6,273.81Zm2.81-2.18a6.68,6.68,0,0,0,.82,7.73A5.65,5.65,0,0,0,159.41,271.63Zm-2.6,8.34c.29-1.87-2.57-5.5-4.62-5.86C151.91,275.58,153.68,277.83,156.81,280Z" fill="#A9CF54" style="fill: rgb(169, 207, 84);"></path><path d="M82.4,257.32a5.06,5.06,0,0,1-2.73-1.79,12.24,12.24,0,0,1-1.59-3c-.67-1.74-1.68-4.13-1.52-6a2.9,2.9,0,0,1,3.52-2.65c1.86.29,2.13,2.17,2.26,3.73,1.21-1.17,2.63-2.94,4.5-2a5.45,5.45,0,0,1,2.43,4.59c-.18,2-1.88,3.57-3.11,5-.63.71-1.47,2.15-2.34,2.54C83.13,258.06,82.94,257.73,82.4,257.32Zm.83-2.94c3.38-2.68,3.9-4.43,2.09-6.71C83.51,249.49,83,251.68,83.23,254.38Zm-2.39-.73c-.08-2.76-.12-5.42-1.45-7.93C78.07,246.87,78.92,251.18,80.84,253.65Z" fill="#A9CF54" style="fill: rgb(169, 207, 84);"></path><path d="M165.76,306.84c-1.34.32-4.39,1.77-5.42.24-.86-1.27.2-3.67,1.06-4.68,1.37-1.6,3.15-1.52,4.93-2.29.59-.26,1-.52,1-1.19.05-.41-.21-.74-.23-1.13a6.12,6.12,0,0,1,.24-1.41,12,12,0,0,1,3.67,6.58c.51,2.12,1,4.71-.06,6.74-.62,1.24-2.51,3.76-4.16,3.24C164.78,312.29,165.61,308.36,165.76,306.84Zm.82-5c-1.56-.08-4.9,1.07-4.22,3.23S166,302.51,166.58,301.82Zm2.44,2.06-.57-.11c-.25,2-.49,4.07-.74,6.11C169.48,308.25,169.31,306.06,169,303.88Z" fill="#A9CF54" style="fill: rgb(169, 207, 84);"></path><path d="M205.94,268.66c-2.52-.71-3.11-2.9-4.49-4.8-1.5-2.06-3.88-3.79-6.53-3.17,1,2.59,3.32,3.35,5.61,4.47,1,.47,2.44,1,1.23,2.11a6,6,0,0,1-4,1c-1.52,0-3.05-.07-4.57-.14-1.13-.05-2.78.2-3.79-.46-1.46-1-1.55-4.07-.22-5.17.78-.64,2.1-.14,3.05,0,1.43.17,1.15-.05.94-1.31-.43-2.51,2-2.87,4-2.43C202.09,259.83,203.87,264.69,205.94,268.66ZM197,266.13c-2.7-1.5-4.75-1.76-6.72-.92C191,266.39,194.69,266.91,197,266.13Z" fill="#A9CF54" style="fill: rgb(169, 207, 84);"></path><path d="M12.48,106.66c-.14-2.25-.94-6.14.73-8.08,1.41-1.64,3.69,1.06,4.43,2.24a8.62,8.62,0,0,1,1.12,5.58c-.14,1.37-.48,2.72-.64,4.09a4.94,4.94,0,0,0-.07,1.67c.11.52.5.93.55,1.47.13,1.27-.91,1.06-1.85.85-1.16-.27-2.29-.46-3.45-.69a9.73,9.73,0,0,1-5-2.87c-1.14-1.18-2.22-3-1.61-4.71C7.48,104.09,11.19,106.18,12.48,106.66Zm2.8-6.51c-1.82,1.93-.86,8.16,1.38,9.58C17.24,106.41,18.25,103.08,15.28,100.15Zm-6.51,6.79c-.41,2.5,3,5.09,6.08,4.66C14.4,109.3,11.44,107,8.77,106.94Z" fill="#A9CF54" style="fill: rgb(169, 207, 84);"></path><path d="M271.73,155.34c-1.43-.23-3.63-.22-3.48-2.19a7,7,0,0,1,2.06-4.11,20.19,20.19,0,0,1,4.26-2.63c1.21-.7,2.89-1.41,3.29.47a21.91,21.91,0,0,1,.07,5.89c-.15,1.89-.43,4.1-1.6,5.66-.79,1-2.28,2.45-3.67,1.62S271.56,156.73,271.73,155.34Zm4.22-5c-1.32,2.37-2.37,4.79-1.69,7.7C276.49,155.74,276.22,153,276,150.35Zm-1.88-1.49c-1.55,1-3.59,2.25-3.15,4.29C272.55,152.41,273.21,150.39,274.07,148.86Z" fill="#A9CF54" style="fill: rgb(169, 207, 84);"></path><path d="M176.2,290.72c-1.53-1-.93-2.21.48-3.19,1.06-.74,3.45-1.88,4.78-1.7s1.09,2.33.34,3.06C180.6,290.08,177.77,290.29,176.2,290.72Z" fill="#A9CF54" style="fill: rgb(169, 207, 84);"></path><path d="M298.84,134.32c1.55-3.33,5.29-2.09,7.11.37,1,1.33.37,2.49-1.25,2C302.71,136.06,300.78,135.11,298.84,134.32Z" fill="#A9CF54" style="fill: rgb(169, 207, 84);"></path><path d="M13.57,199c-1.44-1-3.62-1.94-4.73-3.29s.14-2.15,1.52-2C12.76,194,16.07,196.8,13.57,199Z" fill="#A9CF54" style="fill: rgb(169, 207, 84);"></path><path d="M190.5,306.19c-.17,1.37-1.59,3.85-3,4.22-1.65.41-1.54-1.66-1.19-2.64a7.94,7.94,0,0,1,2.28-3.51C190,303.17,190.52,304.92,190.5,306.19Z" fill="#A9CF54" style="fill: rgb(169, 207, 84);"></path><path d="M291,143.79c-.9,1.28-1.63,2.25-3.18.91a5.22,5.22,0,0,1-1.31-3.57c0-1.09.75-2.17,2-1.54S290.39,142.64,291,143.79Z" fill="#A9CF54" style="fill: rgb(169, 207, 84);"></path><path d="M31.44,186.3c0,.95-.34,3-1.67,1.79a11,11,0,0,1-2.19-4.68c-.13-1.45,1.31-1.84,2.36-1.15C31.23,183.13,31.46,184.88,31.44,186.3Z" fill="#A9CF54" style="fill: rgb(169, 207, 84);"></path><path d="M283.42,141.52a4.71,4.71,0,0,1,2.06,3.4c.23,1.07.69,3.1-1.14,2.84-1.45-.21-2.47-1.92-2.55-3.22A3.08,3.08,0,0,1,283.42,141.52Z" fill="#A9CF54" style="fill: rgb(169, 207, 84);"></path><path d="M187.22,32.16a52.6,52.6,0,0,1,6.19,1.49c1.35.46,1.73.77,1.09,2.14-.5,1.06-.69,1.14-1.84.74a10.13,10.13,0,0,1-2.25-1.14c-.7-.46-1.36-1-2-1.49S186.84,33.17,187.22,32.16Z" fill="#A9CF54" style="fill: rgb(169, 207, 84);"></path><path d="M46,106.81c.09-1.84,4-5.07,4.56-2a4.54,4.54,0,0,1-1.73,3.64C47.31,109.35,46.65,107.87,46,106.81Z" fill="#A9CF54" style="fill: rgb(169, 207, 84);"></path><path d="M28,191.41c-1.62-.68-4.64-3.93-3.14-5.81.85-1.07,2.29-.3,2.92.64C28.67,187.55,28,189.92,28,191.41Z" fill="#A9CF54" style="fill: rgb(169, 207, 84);"></path><path d="M16.44,194.1c-1.58,0-6-2.78-3.58-4.57,1.09-.82,2.57.21,3.22,1.1A3,3,0,0,1,16.44,194.1Z" fill="#A9CF54" style="fill: rgb(169, 207, 84);"></path><path d="M46.78,32.76c-1.57.43-2.23.76-3.34-.75-.61-.83-1.6-2.77-1.27-3.79.39-1.21,1.74-1,2.35-.19C45.53,29.33,46.09,31.29,46.78,32.76Z" fill="#A9CF54" style="fill: rgb(169, 207, 84);"></path><path d="M194.58,11.86c.21,2.31-2.31,5.46-4.84,4S193.27,11.86,194.58,11.86Z" fill="#A9CF54" style="fill: rgb(169, 207, 84);"></path><path d="M66.1,35.18a34.21,34.21,0,0,1,3.71-4.07c1-.82,2-.33,2.12,1.08a2.27,2.27,0,0,1-1.66,2.3c-.8.29-1.61.52-2.4.84S66.69,36.08,66.1,35.18Z" fill="#A9CF54" style="fill: rgb(169, 207, 84);"></path><path d="M243.76,224.43c1.2-1.64,5.43-1.84,5.38.89,0,1.4-1.73,1.67-2.82,1.43A3.48,3.48,0,0,1,243.76,224.43Z" fill="#A9CF54" style="fill: rgb(169, 207, 84);"></path><path d="M50.56,28.23c-.33,1.22-.46,3.13-1.17,4.19-.93,1.41-1.67.16-1.94-.9a4.42,4.42,0,0,1,.49-3.8c.16-.2,1-1.07,1.28-1.06S50.36,28,50.56,28.23Z" fill="#A9CF54" style="fill: rgb(169, 207, 84);"></path><path d="M261,252.54c1.06.77,2.64,1.51,3.26,2.73a1.66,1.66,0,0,1-1.05,2.49c-1.14.23-2-.77-2.51-1.67a4.7,4.7,0,0,1-.67-2C260.07,253.45,260.65,253,261,252.54Z" fill="#A9CF54" style="fill: rgb(169, 207, 84);"></path><path d="M248.3,220.09c-1.06-.66-2.74-1.13-3.28-2.38s.48-1.48,1.53-1.5,2.65.15,3.35,1.16C250.87,218.79,249.29,219.33,248.3,220.09Z" fill="#A9CF54" style="fill: rgb(169, 207, 84);"></path><path d="M186.72,301.72c-.14,1.44-2.32,5-4,3.93-1.45-.93-.12-2.81.86-3.61C184.24,301.49,186.76,299.79,186.72,301.72Z" fill="#A9CF54" style="fill: rgb(169, 207, 84);"></path><path d="M118,47c-.05-1.84,1.5-1.13,2.52-.59.69.37,2.77,1.24,2.42,2.37a2.32,2.32,0,0,1-3.08,1.09A4.28,4.28,0,0,1,118,47Z" fill="#A9CF54" style="fill: rgb(169, 207, 84);"></path><path d="M193.14,8.25c-1,.93-2.31,2.74-3.58,3.27a1.19,1.19,0,0,1-1.77-1.17c.06-1,1.55-2.2,2.3-2.77C191.34,6.63,192.29,7,193.14,8.25Z" fill="#A9CF54" style="fill: rgb(169, 207, 84);"></path><path d="M65.16,32.33c0,1.11-.14,2.12-1.38,2.43s-2.37-.4-2.13-1.76c.15-.88.58-2.7,1.58-3C64.69,29.62,65.26,31.21,65.16,32.33Z" fill="#A9CF54" style="fill: rgb(169, 207, 84);"></path><path d="M300.91,139.22c-.32,3.49-4.42-.41-4.69-2-.21-1.27,1.33-1.42,2.08-.93A6.27,6.27,0,0,1,300.91,139.22Z" fill="#A9CF54" style="fill: rgb(169, 207, 84);"></path><path d="M75.08,277.93a4,4,0,0,1-3.24-1.15c-.85-1-.73-2.29.75-2.53a4.87,4.87,0,0,1,3.27,1.35C76.49,276.51,75.68,277.39,75.08,277.93Z" fill="#A9CF54" style="fill: rgb(169, 207, 84);"></path><path d="M230.78,71.44c-.16.73.61,1.68.18,2.34-.58.91-2.48.33-3-.36s-.8-2.79.08-3.51A1.69,1.69,0,0,1,230.78,71.44Z" fill="#A9CF54" style="fill: rgb(169, 207, 84);"></path><path d="M18.8,87.25c1,.87,2.68,1.88,3.27,3.08s-.51,1.93-1.63,1.85C18.13,92,17.72,88.78,18.8,87.25Z" fill="#A9CF54" style="fill: rgb(169, 207, 84);"></path><path d="M170.06,266.78a4.12,4.12,0,0,1,3.67-1c.9.32,1.91,1.23,1.42,2.21a2.62,2.62,0,0,1-2.82,1C171.27,268.74,170.62,267.64,170.06,266.78Z" fill="#A9CF54" style="fill: rgb(169, 207, 84);"></path><path d="M191.14,27.43c1.29.32,4.33,1,2.12,2.72-1.83,1.38-3.34-.25-4.53-1.51C188.92,28.52,191.15,27.41,191.14,27.43Z" fill="#A9CF54" style="fill: rgb(169, 207, 84);"></path><path d="M306.15,178a3.67,3.67,0,0,1-3-1.74c-.64-1-.55-2.52,1-2.56,1,0,2,1,2.44,1.81C307.21,176.64,307,177.14,306.15,178Z" fill="#A9CF54" style="fill: rgb(169, 207, 84);"></path><path d="M219.58,67.08c.75-1.07,1-2,2.29-1.08a3.32,3.32,0,0,1,1.4,2.52,5.09,5.09,0,0,1,0,.78c.16.5,0,.66-.47.5a2.57,2.57,0,0,1-1.32-.06C220.46,69.36,220.06,67.9,219.58,67.08Z" fill="#A9CF54" style="fill: rgb(169, 207, 84);"></path><path d="M179,282.29c-1.15.92-5.57,3.62-5,.32.16-.95.93-2.22,2-2.18S178.25,281.77,179,282.29Z" fill="#A9CF54" style="fill: rgb(169, 207, 84);"></path><path d="M172.51,275.37c-.78-.48-2.23-.94-2.59-1.87-.51-1.28.43-1.76,1.5-1.8a2.69,2.69,0,0,1,2.7,1.19C174.72,274.15,173.34,274.67,172.51,275.37Z" fill="#A9CF54" style="fill: rgb(169, 207, 84);"></path><path d="M128.29,49.8a2.81,2.81,0,0,1-2.67-1.65c-.34-.91-.15-2.15,1-2.24A3.14,3.14,0,0,1,129,47.36C129.79,48.5,129.12,48.92,128.29,49.8Z" fill="#A9CF54" style="fill: rgb(169, 207, 84);"></path><path d="M34.07,237.23c-.18.27-.71,1.42-1,1.49s-1.29-.64-1.49-.75c-.7-.36-2.25-1-2.1-2.07.12-.86,1.69-.88,2.44-.65A3,3,0,0,1,34.07,237.23Z" fill="#A9CF54" style="fill: rgb(169, 207, 84);"></path><path d="M21,82.88c.84.73,2.51,1.62,3,2.66A2,2,0,0,1,24,87c.1.44-.08.56-.52.37a3.07,3.07,0,0,1-.74,0C20.51,86.68,20.24,84.73,21,82.88Z" fill="#A9CF54" style="fill: rgb(169, 207, 84);"></path><path d="M71.34,283.8c-.62-.54-2.51-1.57-2.61-2.53s1.35-1.23,2.07-1.1,2,.71,2.2,1.55C73.27,282.73,72,283.23,71.34,283.8Z" fill="#A9CF54" style="fill: rgb(169, 207, 84);"></path><path d="M52.5,96.55c.67.91,1.16,1.18,1,2.37-.09,1-.41,2.11-1.51,2.33C49.27,101.84,51,97,52.5,96.55Z" fill="#A9CF54" style="fill: rgb(169, 207, 84);"></path><path d="M257.31,54.67c-.75-1-.92-1.4-.07-2.41.45-.55,1.23-1.27,2-1.18a1.38,1.38,0,0,1,1,2A3.3,3.3,0,0,1,257.31,54.67Z" fill="#A9CF54" style="fill: rgb(169, 207, 84);"></path><path d="M30.16,230.48c-.66-.28-5.58-1.83-3.61-3.09.56-.37,3,.33,3.49.79A1.57,1.57,0,0,1,30.16,230.48Z" fill="#A9CF54" style="fill: rgb(169, 207, 84);"></path><path d="M257.62,262.35c1.28,0,3.89,2.45,2.09,3.44-.9.49-2.12-.27-2.55-1C256.59,263.74,257.06,263.17,257.62,262.35Z" fill="#A9CF54" style="fill: rgb(169, 207, 84);"></path></g></g></g></svg>